#N canvas 16 40 1386 832 12;
#X msg 153 460 stop;
#X obj 765 559 s \$0-channels;
#X obj 553 442 soundfiler;
#X floatatom 559 486 12 0 0 0 - - - 0;
#X obj 653 486 unpack 0 0 0 0 s, f 39;
#X floatatom 634 517 11 0 0 0 - - - 0;
#X floatatom 720 518 5 0 0 0 - - - 0;
#X floatatom 781 518 5 0 0 0 - - - 0;
#X floatatom 848 526 5 0 0 0 - - - 0;
#X obj 568 539 /;
#X floatatom 568 563 10 0 0 0 - - - 0;
#X obj 575 598 * 1000;
#X obj 575 622 s \$0-lengthms;
#X obj 192 609 bng 19 250 50 0 empty empty empty 0 -10 0 12 #fcfcfc #000000 #000000;
#X obj 194 643 t b b;
#X obj 652 67 bng 19 250 50 0 \$0-stop_all empty stop\ all 0 -10 0 12 #fcfcfc #000000 #000000;
#X obj 283 453 r \$0-random_offset;
#X msg 69 446 start;
#X obj 211 505 pack s f;
#X obj 510 137 nbx 5 17 -1e+37 1e+37 0 0 empty \$0-random_offset offset 0 -10 0 12 #fcfcfc #000000 #000000 0 256;
#X obj 584 137 nbx 6 17 -1e+37 1e+37 0 0 empty \$0-lengthms sound\ length 0 -10 0 12 #fcfcfc #000000 #000000 0 256;
#X obj 674 140 nbx 5 17 -1e+37 1e+37 0 0 empty \$0-playlength max\ length 0 -10 0 12 #fcfcfc #000000 #000000 0 256;
#X obj 283 477 * 44.1;
#X obj 188 681 s \$0-new_sound;
#X obj 297 683 s \$0-stop_delay;
#X obj 153 413 r \$0-stop_all;
#X obj 503 90 r \$0-new_sound;
#X obj 478 60 bng 19 250 50 0 empty \$3-startall start\ playback 0 -10 0 12 #fcfcfc #000000 #000000;
#X obj 280 1074 outlet~;
#X obj 345 1079 outlet~;
#X obj 467 14 inlet;
#X obj 490 175 outlet;
#X obj 655 23 r stop_all;
#X obj 379 927 ys.panning;
#X obj 341 993 *~;
#X obj 409 989 *~;
#X obj 383 901 hsl 128 15 0 1 0 0 empty empty empty -2 -8 0 10 #fcfcfc #000000 #000000 0 1;
#X obj 389 845 random 100;
#X obj 389 869 / 100;
#X floatatom 434 263 5 0 0 0 - - - 0;
#X obj 870 213 inlet;
#X floatatom 866 238 5 0 0 0 - - - 0;
#X msg 857 278 symbol \$1-dirfiles;
#X obj 544 318 file splitname;
#X obj 513 340 unpack s s;
#X obj 197 376 t b b s b s b, f 40;
#X obj 344 210 i;
#X obj 341 183 bng 19 250 50 0 empty empty empty 0 -10 0 12 #fcfcfc #000000 #000000;
#X floatatom 343 243 5 0 0 0 - - - 0;
#X obj 369 340 s \$2-selected_sound;
#X obj 435 242 tabread \$2-sample_selector;
#X obj 366 173 r \$2-nextsound;
#X obj 438 289 text get \$2-dirfiles;
#X obj 411 405 s \$2-counterbang;
#X obj 128 575 readsf~;
#X obj 979 207 inlet;
#X msg 1000 261 seed \$1;
#X obj 467 924 s current_pan;
#X obj 581 381 s filename;
#X obj 345 541 print;
#X obj 672 314 print;
#X msg 549 409 read \$1;
#X msg 147 538 open \$1 \$2;
#X floatatom 1026 512 5 0 0 0 - - - 0;
#X obj 1061 387 r \$0-lengthms;
#X obj 1061 411 t b f;
#X obj 1026 464 random 1000;
#X obj 1026 488 / 1000;
#X obj 1038 667 *;
#X obj 1114 623 r \$0-lengthms;
#X floatatom 1038 691 18 0 0 0 - - - 0;
#X obj 1035 622 *;
#X floatatom 1131 525 10 0 0 0 - - - 0;
#X obj 1137 491 hsl 162 19 0 1 0 0 empty empty empty -2 -10 0 12 #fcfcfc #000000 #000000 0 1;
#X obj 1131 548 + 0.01;
#X obj 1177 702 -;
#X obj 1195 671 t b f;
#X floatatom 1177 726 8 0 0 0 - - - 0;
#X obj 1180 788 random;
#X obj 1195 755 t b f;
#X floatatom 1180 812 16 0 0 0 - - - 0;
#X obj 1180 835 s \$0-random_offset;
#X obj 992 780 delay;
#X obj 996 809 bng 19 250 50 0 empty empty empty 0 -10 0 12 #fcfcfc #000000 #000000;
#X msg 700 741 stop;
#X obj 693 716 r \$0-stop_delay;
#X obj 812 718 r \$0-stop_all;
#X obj 996 849 s \$0-new_sound;
#X obj 1041 727 s \$0-playlength;
#X obj 1141 458 r length_random;
#X obj 1232 612 print length;
#X floatatom 994 652 5 0 0 0 - - - 0;
#X obj 802 801 timer;
#X floatatom 802 825 5 0 0 0 - - - 0;
#X obj 801 755 bng 19 250 50 0 empty empty empty 0 -10 0 12 #fcfcfc #000000 #000000;
#X text 934 624 end % length;
#X text 879 572 max possible % length;
#X text 963 691 ms length;
#X obj 1070 581 t b f;
#X connect 0 0 54 0;
#X connect 2 0 3 0;
#X connect 2 1 4 0;
#X connect 3 0 9 0;
#X connect 4 0 5 0;
#X connect 4 1 6 0;
#X connect 4 2 7 0;
#X connect 4 3 8 0;
#X connect 5 0 9 1;
#X connect 7 0 1 0;
#X connect 9 0 10 0;
#X connect 10 0 11 0;
#X connect 11 0 12 0;
#X connect 13 0 14 0;
#X connect 14 0 23 0;
#X connect 14 1 24 0;
#X connect 16 0 22 0;
#X connect 17 0 54 0;
#X connect 18 0 62 0;
#X connect 22 0 18 1;
#X connect 25 0 0 0;
#X connect 26 0 31 0;
#X connect 26 0 47 0;
#X connect 27 0 31 0;
#X connect 27 0 47 0;
#X connect 30 0 27 0;
#X connect 32 0 15 0;
#X connect 33 0 34 1;
#X connect 33 1 35 1;
#X connect 34 0 28 0;
#X connect 35 0 29 0;
#X connect 36 0 33 0;
#X connect 36 0 57 0;
#X connect 37 0 38 0;
#X connect 38 0 36 0;
#X connect 39 0 52 0;
#X connect 40 0 41 0;
#X connect 41 0 42 0;
#X connect 42 0 52 3;
#X connect 43 0 44 0;
#X connect 44 1 45 0;
#X connect 44 1 58 0;
#X connect 45 0 17 0;
#X connect 45 2 18 0;
#X connect 45 3 0 0;
#X connect 45 3 37 0;
#X connect 45 4 61 0;
#X connect 45 5 53 0;
#X connect 46 0 48 0;
#X connect 47 0 46 0;
#X connect 48 0 50 0;
#X connect 50 0 39 0;
#X connect 51 0 46 1;
#X connect 52 0 49 0;
#X connect 52 0 45 0;
#X connect 54 0 34 0;
#X connect 54 0 35 0;
#X connect 54 1 13 0;
#X connect 55 0 56 0;
#X connect 55 0 48 0;
#X connect 56 0 37 0;
#X connect 56 0 66 0;
#X connect 56 0 78 0;
#X connect 61 0 2 0;
#X connect 62 0 54 0;
#X connect 63 0 71 0;
#X connect 64 0 65 0;
#X connect 65 0 66 0;
#X connect 65 1 75 0;
#X connect 66 0 67 0;
#X connect 67 0 63 0;
#X connect 68 0 70 0;
#X connect 69 0 68 1;
#X connect 70 0 76 0;
#X connect 70 0 82 0;
#X connect 70 0 88 0;
#X connect 71 0 68 0;
#X connect 71 0 91 0;
#X connect 72 0 74 0;
#X connect 73 0 72 0;
#X connect 74 0 98 0;
#X connect 75 0 77 0;
#X connect 76 0 75 0;
#X connect 76 1 75 1;
#X connect 77 0 79 0;
#X connect 78 0 80 0;
#X connect 79 0 78 0;
#X connect 79 1 78 1;
#X connect 80 0 81 0;
#X connect 82 0 83 0;
#X connect 83 0 87 0;
#X connect 84 0 82 0;
#X connect 85 0 84 0;
#X connect 86 0 84 0;
#X connect 89 0 73 0;
#X connect 92 0 93 0;
#X connect 98 0 71 0;
#X connect 98 1 71 1;
