#N canvas 280 567 927 549 12;
#X msg 254 168 vis 0 1;
#X msg 322 167 vis 1 1;
#X msg 385 169 vis 2 1;
#X text 275 270 argument integer is like the number of voices (number of simultaneously playing sounds). To experiment with! 6 seems like a lot \, but having a large number is fun in some ways too. Not sure what the maximum feasible on the Bela Gem is.;
#X obj 281 250 clone memoryMachine_lite 16;
#X obj 87 222 s stop_all;
#X obj 88 193 bng 19 250 50 0 empty empty empty 0 -10 0 12 #fcfcfc #000000 #000000;
#X obj 84 126 bng 19 250 50 0 empty empty empty 0 -10 0 12 #fcfcfc #000000 #000000;
#X obj 83 156 s start_all;
#X obj 86 99 loadbang;
#X msg 476 197 all \$1;
#X floatatom 477 164 5 0 0 0 - - - 0;
#X msg 476 122 8;
#X obj 478 95 loadbang;
#X text 511 122 default number of voices;
#X text 521 165 number of voices \, max is argument to clone;
#X obj 186 462 s length_random;
#X obj 187 429 hsl 162 19 0 1 0 0 empty empty empty -2 -10 0 12 #fcfcfc #000000 #000000 0 1;
#X obj 183 377 loadbang;
#X msg 183 401 0.2;
#X text 357 424 Range of randomness for length of playback on each sound. Higher means potentially longer chunks.;
#X connect 0 0 4 0;
#X connect 1 0 4 0;
#X connect 2 0 4 0;
#X connect 6 0 5 0;
#X connect 7 0 8 0;
#X connect 9 0 7 0;
#X connect 10 0 4 1;
#X connect 11 0 10 0;
#X connect 12 0 11 0;
#X connect 13 0 12 0;
#X connect 17 0 16 0;
#X connect 18 0 19 0;
#X connect 19 0 17 0;
