#N canvas 466 405 696 342 12;
#X obj 170 158 clone memoryMachine_lite 6;
#X msg 202 96 1 300;
#X msg 259 95 2 500;
#X msg 309 92 3 700;
#X msg 354 92 4 800;
#X msg 404 93 5 1000;
#X obj 167 33 loadbang;
#X obj 167 57 bng 19 250 50 0 empty empty empty 0 -10 0 12 #fcfcfc #000000 #000000;
#X msg 159 94 0 100;
#X msg 389 40 vis 0 1;
#X msg 457 39 vis 1 1;
#X msg 520 41 vis 2 1;
#X connect 1 0 0 0;
#X connect 2 0 0 0;
#X connect 3 0 0 0;
#X connect 4 0 0 0;
#X connect 5 0 0 0;
#X connect 6 0 7 0;
#X connect 7 0 8 0;
#X connect 7 0 1 0;
#X connect 7 0 2 0;
#X connect 7 0 3 0;
#X connect 7 0 4 0;
#X connect 7 0 5 0;
#X connect 8 0 0 0;
#X connect 9 0 0 0;
#X connect 10 0 0 0;
#X connect 11 0 0 0;
