#N canvas 219 102 997 703 12;
#X msg 274 266 vis 0 1;
#X msg 342 265 vis 1 1;
#X msg 405 267 vis 2 1;
#X text 295 368 argument integer is like the number of voices (number of simultaneously playing sounds). To experiment with! 6 seems like a lot \, but having a large number is fun in some ways too. Not sure what the maximum feasible on the Bela Gem is.;
#X obj 87 256 s stop_all;
#X obj 88 227 bng 19 250 50 0 empty empty empty 0 -10 0 12 #fcfcfc #000000 #000000;
#X obj 84 160 bng 19 250 50 0 empty empty empty 0 -10 0 12 #fcfcfc #000000 #000000;
#X obj 83 190 s start_all;
#X obj 86 133 loadbang;
#X msg 496 295 all \$1;
#X floatatom 497 262 5 0 0 0 - - - 0;
#X obj 388 73 loadbang;
#X text 421 100 default number of voices;
#X text 541 263 number of voices \, max is argument to clone;
#X obj 186 496 s length_random;
#X obj 187 463 hsl 162 19 0 1 0 0 empty empty empty -2 -10 0 12 #fcfcfc #000000 #000000 0 1;
#X obj 183 411 loadbang;
#X msg 183 435 0.2;
#X text 357 458 Range of randomness for length of playback on each sound. Higher means potentially longer chunks.;
#N canvas 329 161 625 417 vu 0;
#X obj 59 129 env~ 1024;
#X obj 161 111 abs~;
#X obj 161 213 snapshot~;
#X obj 161 256 rmstodb;
#X obj 161 21 inlet~;
#X obj 161 288 - 100;
#X obj 59 287 - 100;
#X obj 59 361 outlet;
#X obj 161 361 outlet;
#X text 344 307 Check the help file of env~ and slop~ for more details., f 31;
#X obj 239 89 expr 1000 / $f1;
#X floatatom 239 117 5 0 0 0 - - - 0;
#X obj 161 146 slop~ 0 0 0 0 1e+09;
#X obj 239 18 inlet;
#X floatatom 239 57 5 0 0 0 - - - 0;
#X text 359 89 convert to hz;
#X text 282 118 hz;
#X text 284 57 peak decay time in ms;
#X obj 59 171 t f b;
#X text 345 132 The env~ object is dedicated to RMS analysis. Its output is in dB (0-100 range \, pd style) but needs to be converted to dBFS (and we do that by simply subtracting 100)., f 31;
#X text 345 225 The slop~ object is used here for peak detection. We need to convert the output to dB with rmstodb and also subtract by 100 to convert it to dBFS., f 31;
#X connect 0 0 18 0;
#X connect 1 0 12 0;
#X connect 2 0 3 0;
#X connect 3 0 5 0;
#X connect 4 0 0 0;
#X connect 4 0 1 0;
#X connect 5 0 8 0;
#X connect 6 0 7 0;
#X connect 10 0 11 0;
#X connect 11 0 12 3;
#X connect 12 0 2 0;
#X connect 13 0 14 0;
#X connect 14 0 10 0;
#X connect 18 0 6 0;
#X connect 18 1 2 0;
#X restore 230 589 pd vu;
#N canvas 329 161 625 417 vu 0;
#X obj 59 129 env~ 1024;
#X obj 161 111 abs~;
#X obj 161 213 snapshot~;
#X obj 161 256 rmstodb;
#X obj 161 21 inlet~;
#X obj 161 288 - 100;
#X obj 59 287 - 100;
#X obj 59 361 outlet;
#X obj 161 361 outlet;
#X text 344 307 Check the help file of env~ and slop~ for more details., f 31;
#X obj 239 89 expr 1000 / $f1;
#X floatatom 239 117 5 0 0 0 - - - 0;
#X obj 161 146 slop~ 0 0 0 0 1e+09;
#X obj 239 18 inlet;
#X floatatom 239 57 5 0 0 0 - - - 0;
#X text 359 89 convert to hz;
#X text 282 118 hz;
#X text 284 57 peak decay time in ms;
#X obj 59 171 t f b;
#X text 345 132 The env~ object is dedicated to RMS analysis. Its output is in dB (0-100 range \, pd style) but needs to be converted to dBFS (and we do that by simply subtracting 100)., f 31;
#X text 345 225 The slop~ object is used here for peak detection. We need to convert the output to dB with rmstodb and also subtract by 100 to convert it to dBFS., f 31;
#X connect 0 0 18 0;
#X connect 1 0 12 0;
#X connect 2 0 3 0;
#X connect 3 0 5 0;
#X connect 4 0 0 0;
#X connect 4 0 1 0;
#X connect 5 0 8 0;
#X connect 6 0 7 0;
#X connect 10 0 11 0;
#X connect 11 0 12 3;
#X connect 12 0 2 0;
#X connect 13 0 14 0;
#X connect 14 0 10 0;
#X connect 18 0 6 0;
#X connect 18 1 2 0;
#X restore 299 590 pd vu;
#X obj 86 295 vu 8 160 vu-L empty 20 10 1 24 #404040 #000000 0 0;
#X obj 100 295 vu 8 160 vu-R empty 20 10 1 24 #404040 #000000 0 0;
#X obj 230 538 catch~ outputL;
#X obj 299 563 catch~ outputR;
#X obj 230 620 s vu-L;
#X obj 300 620 s vu-R;
#X obj 671 90 adc~ 3;
#X obj 653 130 snapshot~;
#X floatatom 653 154 5 0 0 0 - - - 0;
#X obj 629 41 tgl 19 0 empty empty empty 0 -10 0 12 #fcfcfc #000000 #000000 0 1;
#X obj 629 65 metro 50;
#X obj 557 69 sel 0;
#X obj 738 60 loadbang;
#X msg 738 84 1;
#X obj 86 590 snapshot~;
#X obj 62 501 tgl 19 0 empty empty empty 0 -10 0 12 #fcfcfc #000000 #000000 0 1;
#X obj 62 525 metro 50;
#X obj -10 529 sel 0;
#X obj 171 520 loadbang;
#X msg 171 544 1;
#X obj 23 113 s bela_debug;
#X obj 22 80 tgl 19 0 empty empty empty 0 -10 0 12 #fcfcfc #000000 #000000 0 1;
#X obj 34 477 r bela_debug;
#X obj 663 14 r bela_debug;
#X obj 24 24 loadbang;
#X msg 24 48 1;
#X text 43 81 <- turn off for desktop use;
#X obj 99 549 adc~ 4;
#X obj 169 594 * 1.3;
#X obj 357 503 print length;
#X msg 386 100 4;
#X obj 658 247 * 10;
#X obj 301 348 clone memoryMachine_lite 10;
#X obj 661 198 * 1.3;
#X obj 661 222 clip 0 1;
#X obj 169 618 clip 0 1;
#X obj 502 621 print;
#X connect 0 0 53 0;
#X connect 1 0 53 0;
#X connect 2 0 53 0;
#X connect 5 0 4 0;
#X connect 6 0 7 0;
#X connect 8 0 6 0;
#X connect 9 0 53 1;
#X connect 10 0 9 0;
#X connect 11 0 51 0;
#X connect 15 0 14 0;
#X connect 16 0 17 0;
#X connect 17 0 15 0;
#X connect 19 0 25 0;
#X connect 20 0 26 0;
#X connect 23 0 19 0;
#X connect 24 0 20 0;
#X connect 27 0 28 0;
#X connect 28 0 29 0;
#X connect 29 0 54 0;
#X connect 30 0 31 0;
#X connect 30 0 32 0;
#X connect 31 0 28 0;
#X connect 32 0 51 0;
#X connect 33 0 34 0;
#X connect 34 0 30 0;
#X connect 35 0 49 0;
#X connect 35 0 57 0;
#X connect 36 0 37 0;
#X connect 36 0 38 0;
#X connect 37 0 35 0;
#X connect 38 0 17 0;
#X connect 39 0 40 0;
#X connect 40 0 36 0;
#X connect 42 0 41 0;
#X connect 43 0 36 0;
#X connect 44 0 30 0;
#X connect 45 0 46 0;
#X connect 46 0 42 0;
#X connect 48 0 35 0;
#X connect 49 0 56 0;
#X connect 51 0 10 0;
#X connect 52 0 10 0;
#X connect 54 0 55 0;
#X connect 55 0 52 0;
#X connect 56 0 15 0;
