#N canvas 256 82 582 585 12;
#X obj 26 221 loadbang;
#X obj 27 300 ys.soundLoader;
#X floatatom 143 450 5 0 0 0 - - - 0;
#X floatatom 237 449 5 0 0 0 - - - 0;
#X obj 146 477 s folder-id;
#X obj 237 472 s folder-numsounds;
#X text 90 216 use the "select folder" number to find the sound folder you want to use [stop all sounds first!];
#X text 86 254 (Bela is 2 \, mac is 3);
#X msg 26 245 3;
#N canvas 131 25 935 654 guts 0;
#X msg 409 273 all \$1;
#X floatatom 409 248 5 0 0 0 - - - 0;
#X obj 370 614 s length_random;
#X msg 289 576 0.2;
#N canvas 329 161 625 417 vu 0;
#X obj 59 129 env~ 1024;
#X obj 161 111 abs~;
#X obj 161 213 snapshot~;
#X obj 161 256 rmstodb;
#X obj 161 21 inlet~;
#X obj 161 288 - 100;
#X obj 59 287 - 100;
#X obj 59 361 outlet;
#X obj 161 361 outlet;
#X text 344 307 Check the help file of env~ and slop~ for more details., f 31;
#X obj 239 89 expr 1000 / $f1;
#X floatatom 239 117 5 0 0 0 - - - 0;
#X obj 161 146 slop~ 0 0 0 0 1e+09;
#X obj 239 18 inlet;
#X floatatom 239 57 5 0 0 0 - - - 0;
#X text 359 89 convert to hz;
#X text 282 118 hz;
#X text 284 57 peak decay time in ms;
#X obj 59 171 t f b;
#X text 345 132 The env~ object is dedicated to RMS analysis. Its output is in dB (0-100 range \, pd style) but needs to be converted to dBFS (and we do that by simply subtracting 100)., f 31;
#X text 345 225 The slop~ object is used here for peak detection. We need to convert the output to dB with rmstodb and also subtract by 100 to convert it to dBFS., f 31;
#X connect 0 0 18 0;
#X connect 1 0 12 0;
#X connect 2 0 3 0;
#X connect 3 0 5 0;
#X connect 4 0 0 0;
#X connect 4 0 1 0;
#X connect 5 0 8 0;
#X connect 6 0 7 0;
#X connect 10 0 11 0;
#X connect 11 0 12 3;
#X connect 12 0 2 0;
#X connect 13 0 14 0;
#X connect 14 0 10 0;
#X connect 18 0 6 0;
#X connect 18 1 2 0;
#X restore 446 533 pd vu;
#N canvas 329 161 625 417 vu 0;
#X obj 59 129 env~ 1024;
#X obj 161 111 abs~;
#X obj 161 213 snapshot~;
#X obj 161 256 rmstodb;
#X obj 161 21 inlet~;
#X obj 161 288 - 100;
#X obj 59 287 - 100;
#X obj 59 361 outlet;
#X obj 161 361 outlet;
#X text 344 307 Check the help file of env~ and slop~ for more details., f 31;
#X obj 239 89 expr 1000 / $f1;
#X floatatom 239 117 5 0 0 0 - - - 0;
#X obj 161 146 slop~ 0 0 0 0 1e+09;
#X obj 239 18 inlet;
#X floatatom 239 57 5 0 0 0 - - - 0;
#X text 359 89 convert to hz;
#X text 282 118 hz;
#X text 284 57 peak decay time in ms;
#X obj 59 171 t f b;
#X text 345 132 The env~ object is dedicated to RMS analysis. Its output is in dB (0-100 range \, pd style) but needs to be converted to dBFS (and we do that by simply subtracting 100)., f 31;
#X text 345 225 The slop~ object is used here for peak detection. We need to convert the output to dB with rmstodb and also subtract by 100 to convert it to dBFS., f 31;
#X connect 0 0 18 0;
#X connect 1 0 12 0;
#X connect 2 0 3 0;
#X connect 3 0 5 0;
#X connect 4 0 0 0;
#X connect 4 0 1 0;
#X connect 5 0 8 0;
#X connect 6 0 7 0;
#X connect 10 0 11 0;
#X connect 11 0 12 3;
#X connect 12 0 2 0;
#X connect 13 0 14 0;
#X connect 14 0 10 0;
#X connect 18 0 6 0;
#X connect 18 1 2 0;
#X restore 500 534 pd vu;
#X obj 446 482 catch~ outputL;
#X obj 500 507 catch~ outputR;
#X obj 446 564 s vu-L;
#X obj 501 564 s vu-R;
#X obj 578 72 adc~ 3;
#X obj 526 103 snapshot~;
#X floatatom 526 127 5 0 0 0 - - - 0;
#X obj 497 47 tgl 19 0 empty empty empty 0 -10 0 12 #fcfcfc #000000 #000000 0 1;
#X obj 510 73 metro 50;
#X obj 388 155 sel 0;
#X obj 364 505 snapshot~;
#X obj 340 416 tgl 19 0 empty empty empty 0 -10 0 12 #fcfcfc #000000 #000000 0 1;
#X obj 340 440 metro 50;
#X obj 271 496 sel 0;
#X obj 344 391 r bela_debug;
#X obj 512 18 r bela_debug;
#X obj 377 464 adc~ 4;
#X obj 370 538 * 1.3;
#X msg 410 219 4;
#X obj 527 159 * 1.3;
#X obj 527 183 clip 0 1;
#X obj 370 562 clip 0 1;
#X text 630 74 bela knob;
#X obj 596 156 r numVoices;
#X text 496 219 this needs to match number of memoryMachine instances;
#X msg 462 274 vis 4 1;
#X obj 66 13 loadbang;
#X obj 53 69 delay 300;
#X obj 409 297 clone memoryMachine 10;
#X obj 458 218 * 10;
#X obj 82 40 s stop_all_rcv;
#X obj 48 102 s start_all_rcv;
#X obj 56 280 s seedOffset;
#X obj 47 231 nbx 5 17 -1e+37 1e+37 0 1 empty empty empty 0 -10 0 12 #fcfcfc #000000 #000000 4 256;
#X obj 47 160 loadbang;
#X msg 47 184 1;
#X obj 50 209 +;
#X msg 45 304 menusave;
#X obj 49 337 s memoryMachine;
#X obj 40 366 namecanvas memoryMachine;
#X obj 48 254 t b f;
#X obj 110 305 print seedOffset;
#X text 83 210 new seeds on each startup;
#X connect 0 0 34 0;
#X connect 1 0 0 0;
#X connect 3 0 2 0;
#X connect 4 0 8 0;
#X connect 5 0 9 0;
#X connect 6 0 4 0;
#X connect 7 0 5 0;
#X connect 10 0 11 0;
#X connect 11 0 12 0;
#X connect 12 0 25 0;
#X connect 13 0 14 0;
#X connect 13 0 15 0;
#X connect 14 0 11 0;
#X connect 16 0 23 0;
#X connect 17 0 18 0;
#X connect 18 0 16 0;
#X connect 19 0 3 0;
#X connect 20 0 17 0;
#X connect 21 0 13 0;
#X connect 22 0 16 0;
#X connect 23 0 27 0;
#X connect 24 0 1 0;
#X connect 25 0 26 0;
#X connect 26 0 35 0;
#X connect 27 0 2 0;
#X connect 29 0 26 0;
#X connect 31 0 34 0;
#X connect 32 0 33 0;
#X connect 32 0 36 0;
#X connect 33 0 37 0;
#X connect 35 0 1 0;
#X connect 39 0 42 1;
#X connect 39 0 46 0;
#X connect 40 0 41 0;
#X connect 41 0 42 0;
#X connect 42 0 39 0;
#X connect 43 0 44 0;
#X connect 46 0 43 0;
#X connect 46 1 38 0;
#X connect 46 1 47 0;
#X restore 47 449 pd guts;
#X obj 12 13 cnv 19 380 200 empty empty empty 20 12 0 12 #ffe3c6 #404040 0;
#X obj 63 69 bng 30 250 50 0 stop_all stop_all_rcv stop\ all\ sounds 35 15 0 12 #ffc7c6 #ff0400 #000000;
#X obj 63 37 bng 30 250 50 0 start_all start_all_rcv start\ all\ sounds 35 15 0 12 #c6ffc7 #00ff04 #000000;
#X obj 22 34 vu 8 160 vu-L empty 20 10 1 24 #404040 #000000 0 0;
#X obj 36 34 vu 8 160 vu-R empty 20 10 1 24 #404040 #000000 0 0;
#X obj 69 135 hsl 162 19 0 1 0 1 numVoices empty number\ of\ voices -2 -10 0 12 #fcfcfc #000000 #000000 7400 1;
#X obj 69 176 hsl 162 19 0 1 0 1 length_random empty max\ %\ length\ of\ sound -2 -10 0 12 #fcfcfc #000000 #000000 2000 1;
#X obj 234 41 vsl 8 40 0 1 0 0 empty 1-main_volume empty 0 -9 0 12 #fcfcfc #000000 #000000 0 1;
#X obj 224 41 vsl 8 40 0 1 0 0 empty 0-main_volume empty 0 -9 0 12 #fcfcfc #000000 #000000 0 1;
#X obj 244 41 vsl 8 40 0 1 0 0 empty 2-main_volume empty 0 -9 0 12 #fcfcfc #000000 #000000 0 1;
#X obj 254 41 vsl 8 40 0 1 0 0 empty 3-main_volume empty 0 -9 0 12 #fcfcfc #000000 #000000 0 1;
#X obj 264 41 vsl 8 40 0 1 0 0 empty 4-main_volume empty 0 -9 0 12 #fcfcfc #000000 #000000 0 1;
#X obj 284 41 vsl 8 40 0 1 0 0 empty 6-main_volume empty 0 -9 0 12 #fcfcfc #000000 #000000 0 1;
#X obj 274 41 vsl 8 40 0 1 0 0 empty 5-main_volume empty 0 -9 0 12 #fcfcfc #000000 #000000 0 1;
#X obj 294 41 vsl 8 40 0 1 0 0 empty 7-main_volume empty 0 -9 0 12 #fcfcfc #000000 #000000 0 1;
#X obj 304 41 vsl 8 40 0 1 0 0 empty 8-main_volume empty 0 -9 0 12 #fcfcfc #000000 #000000 0 1;
#X obj 314 41 vsl 8 40 0 1 0 0 empty 9-main_volume volumes 10 40 0 9 #fcfcfc #000000 #000000 0 1;
#X obj 224 87 tgl 8 0 on 0-on empty 0 -10 0 12 #fcfcfc #000000 #000000 0 1;
#X obj 234 87 tgl 8 0 on 1-on empty 0 -10 0 12 #fcfcfc #000000 #000000 0 1;
#X obj 244 87 tgl 8 0 on 2-on empty 0 -10 0 12 #fcfcfc #000000 #000000 0 1;
#X obj 254 87 tgl 8 0 on 3-on empty 0 -10 0 12 #fcfcfc #000000 #000000 0 1;
#X obj 264 87 tgl 8 0 on 4-on empty 0 -10 0 12 #fcfcfc #000000 #000000 0 1;
#X obj 274 87 tgl 8 0 on 5-on empty 0 -10 0 12 #fcfcfc #000000 #000000 0 1;
#X obj 284 87 tgl 8 0 on 6-on empty 0 -10 0 12 #fcfcfc #000000 #000000 0 1;
#X obj 294 87 tgl 8 0 on 7-on empty 0 -10 0 12 #fcfcfc #000000 #000000 0 1;
#X obj 304 87 tgl 8 0 on 8-on empty 0 -10 0 12 #fcfcfc #000000 #000000 0 1;
#X obj 314 87 tgl 8 0 on 9-on voice\ on 10 5 0 9 #fcfcfc #000000 #000000 0 1;
#X obj 224 98 bng 8 250 50 0 newsound 0-newSoundBang empty 0 -10 0 12 #fcfcfc #000000 #000000;
#X obj 234 98 bng 8 250 50 0 newsound 1-newSoundBang empty 0 -10 0 12 #fcfcfc #000000 #000000;
#X obj 244 98 bng 8 250 50 0 newsound 2-newSoundBang empty 0 -10 0 12 #fcfcfc #000000 #000000;
#X obj 254 98 bng 8 250 50 0 newsound 3-newSoundBang empty 0 -10 0 12 #fcfcfc #000000 #000000;
#X obj 264 98 bng 8 250 50 0 newsound 4-newSoundBang empty 0 -10 0 12 #fcfcfc #000000 #000000;
#X obj 274 98 bng 8 250 50 0 newsound 5-newSoundBang empty 0 -10 0 12 #fcfcfc #000000 #000000;
#X obj 284 98 bng 8 250 50 0 newsound 6-newSoundBang empty 0 -10 0 12 #fcfcfc #000000 #000000;
#X obj 294 98 bng 8 250 50 0 newsound 7-newSoundBang empty 0 -10 0 12 #fcfcfc #000000 #000000;
#X obj 304 98 bng 8 250 50 0 newsound 8-newSoundBang empty 0 -10 0 12 #fcfcfc #000000 #000000;
#X obj 314 98 bng 8 250 50 0 newsound 9-newSoundBang new\ sound 10 4 0 9 #fcfcfc #000000 #000000;
#X obj 259 146 vradio 19 1 1 2 bela_debug bela_debug_rcv empty 0 -10 0 12 #fcfcfc #000000 #000000 0;
#X text 278 145 desktop;
#X text 278 166 bela;
#X connect 0 0 8 0;
#X connect 1 3 2 0;
#X connect 1 4 3 0;
#X connect 2 0 4 0;
#X connect 3 0 5 0;
#X connect 8 0 1 0;
