#N canvas 210 133 1021 649 12;
#X obj 57 171 s stop_all;
#X obj 58 142 bng 19 250 50 0 empty empty empty 0 -10 0 12 #fcfcfc #000000 #000000;
#X obj 54 229 bng 19 250 50 0 empty empty empty 0 -10 0 12 #fcfcfc #000000 #000000;
#X obj 55 255 s start_all;
#X msg 556 300 all \$1;
#X floatatom 556 275 5 0 0 0 - - - 0;
#X obj 556 211 loadbang;
#X obj 705 589 s length_random;
#X obj 624 527 loadbang;
#X msg 624 551 0.2;
#N canvas 329 161 625 417 vu 0;
#X obj 59 129 env~ 1024;
#X obj 161 111 abs~;
#X obj 161 213 snapshot~;
#X obj 161 256 rmstodb;
#X obj 161 21 inlet~;
#X obj 161 288 - 100;
#X obj 59 287 - 100;
#X obj 59 361 outlet;
#X obj 161 361 outlet;
#X text 344 307 Check the help file of env~ and slop~ for more details., f 31;
#X obj 239 89 expr 1000 / $f1;
#X floatatom 239 117 5 0 0 0 - - - 0;
#X obj 161 146 slop~ 0 0 0 0 1e+09;
#X obj 239 18 inlet;
#X floatatom 239 57 5 0 0 0 - - - 0;
#X text 359 89 convert to hz;
#X text 282 118 hz;
#X text 284 57 peak decay time in ms;
#X obj 59 171 t f b;
#X text 345 132 The env~ object is dedicated to RMS analysis. Its output is in dB (0-100 range \, pd style) but needs to be converted to dBFS (and we do that by simply subtracting 100)., f 31;
#X text 345 225 The slop~ object is used here for peak detection. We need to convert the output to dB with rmstodb and also subtract by 100 to convert it to dBFS., f 31;
#X connect 0 0 18 0;
#X connect 1 0 12 0;
#X connect 2 0 3 0;
#X connect 3 0 5 0;
#X connect 4 0 0 0;
#X connect 4 0 1 0;
#X connect 5 0 8 0;
#X connect 6 0 7 0;
#X connect 10 0 11 0;
#X connect 11 0 12 3;
#X connect 12 0 2 0;
#X connect 13 0 14 0;
#X connect 14 0 10 0;
#X connect 18 0 6 0;
#X connect 18 1 2 0;
#X restore 781 508 pd vu;
#N canvas 329 161 625 417 vu 0;
#X obj 59 129 env~ 1024;
#X obj 161 111 abs~;
#X obj 161 213 snapshot~;
#X obj 161 256 rmstodb;
#X obj 161 21 inlet~;
#X obj 161 288 - 100;
#X obj 59 287 - 100;
#X obj 59 361 outlet;
#X obj 161 361 outlet;
#X text 344 307 Check the help file of env~ and slop~ for more details., f 31;
#X obj 239 89 expr 1000 / $f1;
#X floatatom 239 117 5 0 0 0 - - - 0;
#X obj 161 146 slop~ 0 0 0 0 1e+09;
#X obj 239 18 inlet;
#X floatatom 239 57 5 0 0 0 - - - 0;
#X text 359 89 convert to hz;
#X text 282 118 hz;
#X text 284 57 peak decay time in ms;
#X obj 59 171 t f b;
#X text 345 132 The env~ object is dedicated to RMS analysis. Its output is in dB (0-100 range \, pd style) but needs to be converted to dBFS (and we do that by simply subtracting 100)., f 31;
#X text 345 225 The slop~ object is used here for peak detection. We need to convert the output to dB with rmstodb and also subtract by 100 to convert it to dBFS., f 31;
#X connect 0 0 18 0;
#X connect 1 0 12 0;
#X connect 2 0 3 0;
#X connect 3 0 5 0;
#X connect 4 0 0 0;
#X connect 4 0 1 0;
#X connect 5 0 8 0;
#X connect 6 0 7 0;
#X connect 10 0 11 0;
#X connect 11 0 12 3;
#X connect 12 0 2 0;
#X connect 13 0 14 0;
#X connect 14 0 10 0;
#X connect 18 0 6 0;
#X connect 18 1 2 0;
#X restore 835 509 pd vu;
#X obj 305 20 vu 8 160 vu-L empty 20 10 1 24 #404040 #000000 0 0;
#X obj 319 20 vu 8 160 vu-R empty 20 10 1 24 #404040 #000000 0 0;
#X obj 781 457 catch~ outputL;
#X obj 835 482 catch~ outputR;
#X obj 781 539 s vu-L;
#X obj 836 539 s vu-R;
#X obj 725 99 adc~ 3;
#X obj 673 130 snapshot~;
#X floatatom 673 154 5 0 0 0 - - - 0;
#X obj 644 74 tgl 19 0 empty empty empty 0 -10 0 12 #fcfcfc #000000 #000000 0 1;
#X obj 657 100 metro 50;
#X obj 623 210 sel 0;
#X obj 627 21 loadbang;
#X msg 627 45 1;
#X obj 699 480 snapshot~;
#X obj 675 391 tgl 19 0 empty empty empty 0 -10 0 12 #fcfcfc #000000 #000000 0 1;
#X obj 675 415 metro 50;
#X obj 606 471 sel 0;
#X obj 742 343 loadbang;
#X msg 742 367 1;
#X obj 61 113 s bela_debug;
#X obj 60 80 tgl 19 0 empty empty empty 0 -10 0 12 #fcfcfc #000000 #000000 0 1;
#X obj 647 367 r bela_debug;
#X obj 659 45 r bela_debug;
#X obj 62 24 loadbang;
#X text 81 81 <- turn off for desktop use;
#X obj 712 439 adc~ 4;
#X obj 705 513 * 1.3;
#X msg 557 246 4;
#X obj 674 186 * 1.3;
#X obj 674 210 clip 0 1;
#X obj 705 537 clip 0 1;
#X obj 67 328 loadbang;
#X obj 62 386 ys.soundLoader;
#X floatatom 337 541 5 0 0 0 - - - 0;
#X floatatom 431 540 5 0 0 0 - - - 0;
#X obj 340 568 s folder-id;
#X obj 431 563 s folder-numsounds;
#X text 131 323 use the "select folder" number to find the sound folder you want to use [stop all sounds first!];
#X text 80 227 <- start all sounds;
#X text 84 144 <- stop all sounds;
#X text 777 101 bela knob;
#X obj 374 38 hsl 162 19 0 1 0 0 numVoices empty number\ of\ voices -2 -10 0 12 #fcfcfc #000000 #000000 0 1;
#X obj 743 183 r numVoices;
#X text 643 246 this needs to match number of memoryMachine instances;
#X obj 373 102 hsl 162 19 0 1 0 0 length_random empty max\ %\ length\ of\ sound -2 -10 0 12 #fcfcfc #000000 #000000 0 1;
#X msg 644 287 vis 4 1;
#X obj 457 605 print numSounds;
#X text 127 361 (Bela is 2 \, mac is 3);
#X floatatom 903 542 5 0 0 0 - - - 0;
#X obj 374 248 s seedOffset;
#X obj 365 199 nbx 5 17 -1e+37 1e+37 0 1 empty empty empty 0 -10 0 12 #fcfcfc #000000 #000000 29 256;
#X obj 365 128 loadbang;
#X msg 365 152 1;
#X obj 368 177 +;
#X msg 338 275 menusave;
#X obj 342 308 s memoryMachine;
#X obj 157 276 namecanvas memoryMachine;
#X obj 366 222 t b f;
#X obj 403 276 print seedOffset;
#X obj 148 174 loadbang;
#X obj 144 206 delay 300;
#X msg 67 352 2;
#X msg 62 48 1;
#X obj 556 324 clone memoryMachine 10;
#X obj 605 245 * 10;
#X connect 1 0 0 0;
#X connect 2 0 3 0;
#X connect 4 0 76 0;
#X connect 5 0 4 0;
#X connect 6 0 40 0;
#X connect 8 0 9 0;
#X connect 9 0 7 0;
#X connect 10 0 16 0;
#X connect 11 0 17 0;
#X connect 14 0 10 0;
#X connect 15 0 11 0;
#X connect 18 0 19 0;
#X connect 19 0 20 0;
#X connect 20 0 41 0;
#X connect 21 0 22 0;
#X connect 21 0 23 0;
#X connect 22 0 19 0;
#X connect 23 0 40 0;
#X connect 24 0 25 0;
#X connect 25 0 21 0;
#X connect 26 0 39 0;
#X connect 27 0 28 0;
#X connect 27 0 29 0;
#X connect 28 0 26 0;
#X connect 29 0 9 0;
#X connect 30 0 31 0;
#X connect 31 0 27 0;
#X connect 33 0 32 0;
#X connect 34 0 27 0;
#X connect 35 0 21 0;
#X connect 36 0 75 0;
#X connect 38 0 26 0;
#X connect 39 0 43 0;
#X connect 40 0 5 0;
#X connect 41 0 42 0;
#X connect 42 0 77 0;
#X connect 43 0 7 0;
#X connect 44 0 74 0;
#X connect 45 3 46 0;
#X connect 45 4 47 0;
#X connect 46 0 48 0;
#X connect 47 0 49 0;
#X connect 47 0 59 0;
#X connect 55 0 42 0;
#X connect 58 0 76 0;
#X connect 61 0 7 0;
#X connect 63 0 66 1;
#X connect 63 0 70 0;
#X connect 64 0 65 0;
#X connect 65 0 66 0;
#X connect 66 0 63 0;
#X connect 67 0 68 0;
#X connect 70 0 67 0;
#X connect 70 1 62 0;
#X connect 70 1 71 0;
#X connect 72 0 1 0;
#X connect 72 0 73 0;
#X connect 73 0 2 0;
#X connect 74 0 45 0;
#X connect 75 0 33 0;
#X connect 77 0 5 0;
