#N canvas 99 221 1168 724 12;
#X obj 277 70 bng 19 250 50 0 empty empty empty 0 -10 0 12 #fcfcfc #000000 #000000;
#X obj 640 143 bng 19 250 50 0 empty empty empty 0 -10 0 12 #fcfcfc #000000 #000000;
#X obj 403 60 bng 19 250 50 0 reloadsounds empty reloadsounds 0 -10 0 12 #fcfcfc #000000 #000000;
#X obj 278 30 loadbang;
#X obj 645 174 delay;
#X obj 669 88 + 500;
#X text 719 219 convert everything to mono for better offset;
#X obj 629 117 r \$0-thisend;
#X obj 277 98 t b b b b b;
#X text 451 694 post-offset length;
#X text 425 837 playlength ms;
#X obj 452 1051 snapshot~;
#X obj 433 1002 tgl 19 0 empty empty empty 0 -10 0 12 #fcfcfc #000000 #000000 0 1;
#X floatatom 452 1075 10 0 0 0 - - - 0;
#X obj 455 876 r \$0-makevolumes;
#X obj 433 1026 metro 5;
#X obj 362 896 i;
#X obj 669 64 random 2500;
#X obj 294 315 playOnesound;
#X obj 292 280 bng 19 250 50 0 empty empty empty 0 -10 0 12 #fcfcfc #000000 #000000;
#X obj 404 317 playOnesound;
#X obj 402 282 bng 19 250 50 0 empty empty empty 0 -10 0 12 #fcfcfc #000000 #000000;
#X connect 0 0 8 0;
#X connect 1 0 4 0;
#X connect 3 0 0 0;
#X connect 5 0 4 1;
#X connect 7 0 1 0;
#X connect 8 0 17 0;
#X connect 11 0 13 0;
#X connect 12 0 15 0;
#X connect 15 0 11 0;
#X connect 17 0 5 0;
#X connect 18 0 21 0;
#X connect 19 0 18 0;
#X connect 20 0 19 0;
#X connect 21 0 20 0;
