#N canvas 68 118 1216 499 12;
#X obj 227 342 *~;
#X obj 263 337 *~;
#X obj 238 403 dac~;
#X obj 330 122 vsl 19 162 0 1 0 1 empty empty empty 0 -9 0 12 #fcfcfc #000000 #000000 12500 1;
#X obj 224 215 bng 19 250 50 0 empty empty empty 0 -10 0 12 #fcfcfc #000000 #000000;
#X obj 207 62 bng 19 250 50 0 stop_all empty stop\ all 0 -10 0 12 #fcfcfc #000000 #000000;
#X obj 399 125 vsl 19 162 0 50 0 1 intensity empty intensity 0 -9 0 12 #fcfcfc #000000 #000000 0 1;
#X obj 146 247 clone singleMemory 50 2;
#X connect 0 0 2 0;
#X connect 1 0 2 1;
#X connect 3 0 1 1;
#X connect 3 0 0 1;
#X connect 4 0 7 0;
#X connect 7 0 0 0;
#X connect 7 1 1 0;
