#N canvas 414 74 932 650 12;
#N canvas 0 41 1385 831 guts 1;
#X obj 1131 860 *~;
#X obj 1174 863 *~;
#X obj 1142 921 dac~;
#N canvas 329 161 625 417 vu 0;
#X obj 59 129 env~ 1024;
#X obj 161 111 abs~;
#X obj 161 213 snapshot~;
#X obj 161 256 rmstodb;
#X obj 161 21 inlet~;
#X obj 161 288 - 100;
#X obj 59 287 - 100;
#X obj 59 361 outlet;
#X obj 161 361 outlet;
#X text 344 307 Check the help file of env~ and slop~ for more details., f 31;
#X obj 239 89 expr 1000 / $f1;
#X floatatom 239 117 5 0 0 0 - - - 0;
#X obj 161 146 slop~ 0 0 0 0 1e+09;
#X obj 239 18 inlet;
#X floatatom 239 57 5 0 0 0 - - - 0;
#X text 359 89 convert to hz;
#X text 282 118 hz;
#X text 284 57 peak decay time in ms;
#X obj 59 171 t f b;
#X text 345 132 The env~ object is dedicated to RMS analysis. Its output is in dB (0-100 range \, pd style) but needs to be converted to dBFS (and we do that by simply subtracting 100)., f 31;
#X text 345 225 The slop~ object is used here for peak detection. We need to convert the output to dB with rmstodb and also subtract by 100 to convert it to dBFS., f 31;
#X connect 0 0 18 0;
#X connect 1 0 12 0;
#X connect 2 0 3 0;
#X connect 3 0 5 0;
#X connect 4 0 0 0;
#X connect 4 0 1 0;
#X connect 5 0 8 0;
#X connect 6 0 7 0;
#X connect 10 0 11 0;
#X connect 11 0 12 3;
#X connect 12 0 2 0;
#X connect 13 0 14 0;
#X connect 14 0 10 0;
#X connect 18 0 6 0;
#X connect 18 1 2 0;
#X restore 1189 908 pd vu;
#N canvas 329 161 625 417 vu 0;
#X obj 59 129 env~ 1024;
#X obj 161 111 abs~;
#X obj 161 213 snapshot~;
#X obj 161 256 rmstodb;
#X obj 161 21 inlet~;
#X obj 161 288 - 100;
#X obj 59 287 - 100;
#X obj 59 361 outlet;
#X obj 161 361 outlet;
#X text 344 307 Check the help file of env~ and slop~ for more details., f 31;
#X obj 239 89 expr 1000 / $f1;
#X floatatom 239 117 5 0 0 0 - - - 0;
#X obj 161 146 slop~ 0 0 0 0 1e+09;
#X obj 239 18 inlet;
#X floatatom 239 57 5 0 0 0 - - - 0;
#X text 359 89 convert to hz;
#X text 282 118 hz;
#X text 284 57 peak decay time in ms;
#X obj 59 171 t f b;
#X text 345 132 The env~ object is dedicated to RMS analysis. Its output is in dB (0-100 range \, pd style) but needs to be converted to dBFS (and we do that by simply subtracting 100)., f 31;
#X text 345 225 The slop~ object is used here for peak detection. We need to convert the output to dB with rmstodb and also subtract by 100 to convert it to dBFS., f 31;
#X connect 0 0 18 0;
#X connect 1 0 12 0;
#X connect 2 0 3 0;
#X connect 3 0 5 0;
#X connect 4 0 0 0;
#X connect 4 0 1 0;
#X connect 5 0 8 0;
#X connect 6 0 7 0;
#X connect 10 0 11 0;
#X connect 11 0 12 3;
#X connect 12 0 2 0;
#X connect 13 0 14 0;
#X connect 14 0 10 0;
#X connect 18 0 6 0;
#X connect 18 1 2 0;
#X restore 1258 909 pd vu;
#X obj 56 726 loadbang;
#X msg 56 750 \; pd dsp 1;
#X obj 1251 824 r \$0-main_volume;
#X obj 1187 947 s \$0-vu-L;
#X obj 1271 949 s \$0-vu-R;
#X obj 63 107 sampleSelector \$0;
#X obj 190 76 s \$0-numsounds;
#X obj 636 377 r \$0-counterbang;
#X obj 635 447 bng 19 250 50 0 empty empty empty 0 -10 0 12 #fcfcfc #000000 #000000;
#X floatatom 681 526 5 0 0 0 - - - 0;
#X msg 634 479 1;
#X obj 634 503 +;
#X floatatom 634 527 5 0 0 0 - - - 0;
#X obj 634 550 %;
#X floatatom 634 574 5 0 0 0 - - - 0;
#X obj 681 502 r \$0-numsounds;
#X obj 635 606 s \$0-nextsound;
#X obj 92 569 +~ 1;
#X obj 92 617 snapshot~;
#X obj 205 540 metro 50;
#X obj 224 393 loadbang;
#X floatatom 92 641 5 0 0 0 - - - 0;
#X obj 92 545 osc~ 0.005;
#X text 125 663 max intensity. this could maybe go up now?;
#X obj 92 593 /~ 4;
#X obj 67 358 bng 19 250 50 0 empty empty empty 0 -10 0 12 #fcfcfc #000000 #000000;
#X floatatom 64 492 15 0 0 0 - - - 0;
#X obj 146 417 random 100;
#X obj 146 441 / 100;
#X msg 98 328 seed \$1;
#X obj 92 696 s \$0-main_volume_rcv;
#X obj 765 400 t b f;
#X floatatom 130 255 5 0 0 0 - - - 0;
#X obj 82 296 t b f;
#X floatatom 113 420 5 0 0 0 - - - 0;
#X obj 67 389 random 1000;
#X obj 67 413 + 200;
#X obj 68 443 / 100000;
#X obj 130 278 * 0.7;
#X obj 1123 1007 throw~ outputL;
#X obj 1229 1008 throw~ outputR;
#X obj 65 47 r folder-numsounds;
#X obj 1517 208 r folder-id;
#X msg 1011 489 stop;
#X obj 1623 588 s \$0-channels;
#X obj 1416 491 soundfiler;
#X floatatom 1417 515 12 0 0 0 - - - 0;
#X obj 1511 515 unpack 0 0 0 0 s, f 39;
#X floatatom 1492 546 11 0 0 0 - - - 0;
#X floatatom 1578 547 5 0 0 0 - - - 0;
#X floatatom 1639 547 5 0 0 0 - - - 0;
#X floatatom 1706 555 5 0 0 0 - - - 0;
#X obj 1426 568 /;
#X floatatom 1426 592 10 0 0 0 - - - 0;
#X obj 1433 627 * 1000;
#X obj 1433 651 s \$0-lengthms;
#X obj 1050 638 bng 19 250 50 0 empty empty empty 0 -10 0 12 #fcfcfc #000000 #000000;
#X obj 1052 672 t b b;
#X obj 1510 96 bng 19 250 50 0 \$0-stop_all empty stop\ all 0 -10 0 12 #fcfcfc #000000 #000000;
#X obj 1141 482 r \$0-random_offset;
#X msg 927 475 start;
#X obj 1069 534 pack s f;
#X obj 1643 67 nbx 5 17 -1e+37 1e+37 0 0 empty \$0-random_offset offset 0 -10 0 12 #fcfcfc #000000 #000000 0 256;
#X obj 1641 112 nbx 6 17 -1e+37 1e+37 0 0 empty \$0-lengthms sound\ length 0 -10 0 12 #fcfcfc #000000 #000000 0 256;
#X obj 1642 154 nbx 5 17 -1e+37 1e+37 0 0 empty \$0-playlength max\ length 0 -10 0 12 #fcfcfc #000000 #000000 0 256;
#X obj 1141 506 * 44.1;
#X obj 1046 710 s \$0-new_sound;
#X obj 1155 712 s \$0-stop_delay;
#X obj 1011 442 r \$0-stop_all;
#X obj 1361 119 r \$0-new_sound;
#X obj 1336 89 bng 19 250 50 0 empty \$3-startall start\ playback 0 -10 0 12 #fcfcfc #000000 #000000;
#X obj 1325 43 inlet;
#X obj 1348 204 outlet;
#X obj 1486 57 r stop_all;
#X obj 1238 648 ys.panning;
#X obj 1030 804 *~;
#X obj 1098 800 *~;
#X obj 1242 622 hsl 128 15 0 1 0 0 empty empty empty -2 -8 0 10 #fcfcfc #000000 #000000 0 1;
#X obj 1248 590 / 100;
#X floatatom 1292 292 5 0 0 0 - - - 0;
#X floatatom 1519 235 5 0 0 0 - - - 0;
#X msg 1510 275 symbol \$1-dirfiles;
#X obj 1055 405 t b b s b s b, f 40;
#X obj 1213 213 i;
#X obj 1210 186 bng 19 250 50 0 empty empty empty 0 -10 0 12 #fcfcfc #000000 #000000;
#X floatatom 1293 245 5 0 0 0 - - - 0;
#X obj 986 604 readsf~;
#X msg 1850 414 seed \$1;
#X obj 1326 645 s current_pan;
#X msg 1412 465 read \$1;
#X msg 1005 567 open \$1 \$2;
#X floatatom 1884 541 5 0 0 0 - - - 0;
#X obj 1919 416 r \$0-lengthms;
#X obj 1919 440 t b f;
#X obj 1884 493 random 1000;
#X obj 1884 517 / 1000;
#X obj 1896 696 *;
#X obj 1972 652 r \$0-lengthms;
#X floatatom 1896 720 18 0 0 0 - - - 0;
#X obj 1893 651 *;
#X floatatom 1989 554 10 0 0 0 - - - 0;
#X obj 1995 520 hsl 162 19 0 1 0 0 empty empty empty -2 -10 0 12 #fcfcfc #000000 #000000 0 1;
#X obj 1989 577 + 0.01;
#X obj 2035 731 -;
#X obj 2053 700 t b f;
#X floatatom 2035 755 8 0 0 0 - - - 0;
#X obj 2053 784 t b f;
#X floatatom 2037 900 16 0 0 0 - - - 0;
#X obj 2037 923 s \$0-random_offset;
#X obj 1810 884 delay;
#X obj 1844 935 bng 19 250 50 0 empty empty empty 0 -10 0 12 #fcfcfc #000000 #000000;
#X msg 1662 779 stop;
#X obj 1655 754 r \$0-stop_delay;
#X obj 1774 756 r \$0-stop_all;
#X obj 1844 957 s \$0-new_sound;
#X obj 1899 756 s \$0-playlength;
#X obj 2070 383 r length_random;
#X text 1792 653 end % length;
#X text 1788 556 max possible % length;
#X text 1821 720 ms length;
#X obj 1928 610 t b f;
#X obj 1293 271 tabread \$0-sample_selector;
#X floatatom 308 93 5 0 0 0 - - - 0;
#X text 64 278 why?? ->;
#X obj 1212 41 r \$0-startall;
#X obj 1235 176 r \$0-nextsound;
#X obj 1296 318 text get;
#X obj 1321 365 s \$0-selected_sound;
#X obj 1377 431 s \$0-counterbang;
#X obj 308 65 i \$1;
#X obj 308 37 loadbang;
#X obj 309 118 s \$0-localSeed;
#X obj 378 36 bng 19 250 50 0 empty empty empty 0 -10 0 12 #fcfcfc #000000 #000000;
#X obj 1848 383 r \$0-localSeed;
#X obj 1309 517 r \$0-localSeed;
#X obj 2101 801 r \$0-localSeed;
#X obj 765 371 r \$0-localSeed;
#X obj 128 226 r \$0-localSeed;
#X obj 1751 700 bng 19 250 50 0 empty empty empty 0 -10 0 12 #fcfcfc #000000 #000000;
#X obj 1295 491 bng 19 250 50 0 empty empty empty 0 -10 0 12 #fcfcfc #000000 #000000;
#X msg 1309 541 seed \$1;
#X obj 1248 566 random 100;
#X msg 2101 825 seed \$1;
#X obj 2037 876 random;
#X text 1101 679 also triggers next sound at end of sample;
#X obj 2070 407 * 50;
#X obj 2070 431 i;
#X obj 2070 455 change;
#X obj 2070 479 / 50;
#X connect 0 0 2 0;
#X connect 0 0 3 0;
#X connect 0 0 44 0;
#X connect 1 0 2 1;
#X connect 1 0 4 0;
#X connect 1 0 45 0;
#X connect 3 0 8 0;
#X connect 4 0 9 0;
#X connect 5 0 6 0;
#X connect 7 0 1 1;
#X connect 7 0 0 1;
#X connect 12 0 13 0;
#X connect 13 0 15 0;
#X connect 14 0 18 1;
#X connect 15 0 16 0;
#X connect 16 0 17 0;
#X connect 17 0 16 1;
#X connect 17 0 18 0;
#X connect 18 0 19 0;
#X connect 19 0 21 0;
#X connect 20 0 14 0;
#X connect 22 0 29 0;
#X connect 23 0 26 0;
#X connect 24 0 23 0;
#X connect 25 0 24 0;
#X connect 25 0 30 0;
#X connect 26 0 35 0;
#X connect 27 0 22 0;
#X connect 29 0 23 0;
#X connect 30 0 32 0;
#X connect 30 0 40 0;
#X connect 31 0 27 0;
#X connect 32 0 33 0;
#X connect 33 0 27 1;
#X connect 34 0 32 0;
#X connect 34 0 40 0;
#X connect 36 0 13 0;
#X connect 36 1 16 1;
#X connect 37 0 43 0;
#X connect 38 0 30 0;
#X connect 38 1 34 0;
#X connect 40 0 39 0;
#X connect 40 0 41 0;
#X connect 41 0 42 0;
#X connect 42 0 31 0;
#X connect 43 0 38 0;
#X connect 46 0 11 0;
#X connect 46 0 10 0;
#X connect 47 0 85 0;
#X connect 48 0 91 0;
#X connect 50 0 51 0;
#X connect 50 1 52 0;
#X connect 51 0 57 0;
#X connect 52 0 53 0;
#X connect 52 1 54 0;
#X connect 52 2 55 0;
#X connect 52 3 56 0;
#X connect 53 0 57 1;
#X connect 55 0 49 0;
#X connect 57 0 58 0;
#X connect 58 0 59 0;
#X connect 59 0 60 0;
#X connect 61 0 62 0;
#X connect 62 0 71 0;
#X connect 62 1 72 0;
#X connect 64 0 70 0;
#X connect 65 0 91 0;
#X connect 66 0 95 0;
#X connect 70 0 66 1;
#X connect 73 0 48 0;
#X connect 74 0 77 0;
#X connect 74 0 89 0;
#X connect 75 0 77 0;
#X connect 75 0 89 0;
#X connect 76 0 75 0;
#X connect 78 0 63 0;
#X connect 79 0 80 1;
#X connect 79 1 81 1;
#X connect 80 0 0 0;
#X connect 81 0 1 0;
#X connect 82 0 79 0;
#X connect 82 0 93 0;
#X connect 83 0 82 0;
#X connect 84 0 131 0;
#X connect 85 0 86 0;
#X connect 86 0 131 3;
#X connect 87 0 65 0;
#X connect 87 2 66 0;
#X connect 87 3 48 0;
#X connect 87 3 144 0;
#X connect 87 3 146 0;
#X connect 87 4 94 0;
#X connect 87 5 133 0;
#X connect 88 0 90 0;
#X connect 89 0 88 0;
#X connect 90 0 126 0;
#X connect 91 0 80 0;
#X connect 91 0 81 0;
#X connect 91 1 61 0;
#X connect 92 0 99 0;
#X connect 94 0 50 0;
#X connect 95 0 91 0;
#X connect 96 0 104 0;
#X connect 97 0 98 0;
#X connect 98 0 99 0;
#X connect 98 1 108 0;
#X connect 99 0 100 0;
#X connect 100 0 96 0;
#X connect 101 0 103 0;
#X connect 102 0 101 1;
#X connect 103 0 109 0;
#X connect 103 0 114 0;
#X connect 103 0 120 0;
#X connect 104 0 101 0;
#X connect 105 0 107 0;
#X connect 106 0 105 0;
#X connect 107 0 125 0;
#X connect 108 0 110 0;
#X connect 109 0 108 0;
#X connect 109 1 108 1;
#X connect 110 0 111 0;
#X connect 111 0 148 0;
#X connect 111 1 148 1;
#X connect 112 0 113 0;
#X connect 114 0 115 0;
#X connect 115 0 119 0;
#X connect 116 0 114 0;
#X connect 117 0 116 0;
#X connect 118 0 116 0;
#X connect 121 0 150 0;
#X connect 125 0 104 0;
#X connect 125 1 104 1;
#X connect 126 0 84 0;
#X connect 127 0 136 0;
#X connect 129 0 75 0;
#X connect 130 0 88 1;
#X connect 131 0 87 0;
#X connect 131 0 132 0;
#X connect 134 0 127 0;
#X connect 135 0 134 0;
#X connect 137 0 134 0;
#X connect 138 0 92 0;
#X connect 139 0 145 0;
#X connect 140 0 147 0;
#X connect 141 0 36 0;
#X connect 142 0 37 0;
#X connect 145 0 146 0;
#X connect 146 0 83 0;
#X connect 147 0 148 0;
#X connect 148 0 112 0;
#X connect 150 0 151 0;
#X connect 151 0 152 0;
#X connect 152 0 153 0;
#X connect 153 0 106 0;
#X restore 287 285 pd guts;
#X obj 17 12 cnv 19 250 220 empty empty memory\ machine 5 12 1 20 #c7c6ff #404040 0;
#X obj 42 56 vsl 40 162 0 1 0 1 \$0-main_volume \$0-main_volume_rcv volume 0 -9 0 12 #feffc6 #000000 #000000 3507 1;
#X obj 173 133 bng 40 250 50 0 stop_all \$0-stopall_rcv stop\ all 0 -10 0 12 #ff8300 #000000 #000000;
#X obj 174 69 bng 40 250 50 0 \$0-startall \$0-startall_rcv start\ all 0 -10 0 12 #00ff04 #000000 #000000;
#X obj 90 58 vu 8 160 \$0-vu-L empty 20 10 1 24 #404040 #000000 0 0;
#X obj 104 58 vu 8 160 \$0-vu-R empty 20 10 1 24 #404040 #000000 0 0;
#X msg 35 305 \; pd dsp 1;
#X obj 30 258 loadbang;
#X obj 273 43 r start_all;
#X obj 290 93 inlet;
#X floatatom 290 117 5 0 0 0 - - - 0;
#X obj 283 188 tgl 19 0 empty empty empty 0 -10 0 12 #fcfcfc #000000 #000000 0 1;
#X obj 283 164 >= \$1;
#X obj 288 243 switch~;
#X obj 29 373 r \$0-selected_sound;
#X symbolatom 30 419 84 0 0 0 - - - 0;
#X connect 8 0 7 0;
#X connect 9 0 4 0;
#X connect 10 0 11 0;
#X connect 11 0 13 0;
#X connect 12 0 14 0;
#X connect 13 0 12 0;
#X connect 15 0 16 0;
