#N canvas 353 119 834 645 12;
#X obj 100 321 pd~ -noutsig 2;
#X obj 226 323 pd~ -noutsig 2;
#X msg 51 266 pd~ stop;
#X obj 139 394 dac~;
#X obj 274 393 dac~;
#X obj 285 28 loadbang;
#X msg 290 66 \; pd dsp 1;
#X msg 479 283 intensity \$1;
#X floatatom 480 257 5 0 0 0 - - - 0;
#X obj 139 84 bng 19 250 50 0 empty empty empty 0 -10 0 12 #fcfcfc #000000 #000000;
#X obj 157 123 t b b b;
#X obj 429 333 pd~ -noutsig 2;
#X obj 477 403 dac~;
#X msg 277 443 offset 4;
#X msg 378 443 offset 8;
#X text 269 486 each core needs to be offset by multiples of the number of voices being used;
#X msg 192 234 pd~ start -nogui memoryMachine_lite_inst.pd;
#X text 531 258 ints \, range 0-number of total voices;
#X obj 745 568 s \$0-intensity_rcv;
#X obj 769 473 ctlin 55;
#X obj 769 497 / 127;
#X obj 896 500 / 127;
#X obj 896 524 s \$0-main_volume_rcv;
#X obj 896 476 ctlin 56;
#X obj 645 305 notein;
#X obj 637 350 pack 0 0;
#X obj 635 385 route 60 61;
#X floatatom 635 409 5 0 0 0 - - - 0;
#X floatatom 679 411 5 0 0 0 - - - 0;
#X obj 624 441 sel 100;
#X obj 631 464 s \$0-startall_rcv;
#X obj 757 408 sel 100;
#X obj 764 431 s \$0-stopall_rcv;
#X obj 769 521 * 12;
#X obj 732 496 i;
#X connect 0 0 8 0;
#X connect 0 1 3 0;
#X connect 0 2 3 1;
#X connect 1 0 13 0;
#X connect 1 0 8 0;
#X connect 1 1 4 0;
#X connect 1 2 4 1;
#X connect 2 0 0 0;
#X connect 2 0 1 0;
#X connect 5 0 6 0;
#X connect 5 0 10 0;
#X connect 7 0 1 0;
#X connect 7 0 0 0;
#X connect 7 0 11 0;
#X connect 8 0 7 0;
#X connect 9 0 10 0;
#X connect 10 2 16 0;
#X connect 11 0 8 0;
#X connect 11 0 14 0;
#X connect 11 1 12 0;
#X connect 11 2 12 1;
#X connect 13 0 1 0;
#X connect 14 0 11 0;
#X connect 16 0 1 0;
#X connect 16 0 0 0;
#X connect 16 0 11 0;
#X connect 19 0 20 0;
#X connect 20 0 33 0;
#X connect 21 0 22 0;
#X connect 23 0 21 0;
#X connect 24 0 25 0;
#X connect 24 1 25 1;
#X connect 25 0 26 0;
#X connect 26 0 27 0;
#X connect 26 1 28 0;
#X connect 27 0 29 0;
#X connect 28 0 31 0;
#X connect 29 0 30 0;
#X connect 31 0 32 0;
#X connect 33 0 34 0;
#X connect 34 0 8 0;
