#N canvas 977 484 932 650 12;
#N canvas 380 83 1385 831 guts 0;
#X obj 314 434 *~;
#X obj 357 437 *~;
#X obj 325 495 dac~;
#X obj 235 308 bng 19 250 50 0 empty empty empty 0 -10 0 12 #fcfcfc #000000 #000000;
#X obj 429 238 inlet;
#N canvas 329 161 625 417 vu 0;
#X obj 59 129 env~ 1024;
#X obj 161 111 abs~;
#X obj 161 213 snapshot~;
#X obj 161 256 rmstodb;
#X obj 161 21 inlet~;
#X obj 161 288 - 100;
#X obj 59 287 - 100;
#X obj 59 361 outlet;
#X obj 161 361 outlet;
#X text 344 307 Check the help file of env~ and slop~ for more details., f 31;
#X obj 239 89 expr 1000 / $f1;
#X floatatom 239 117 5 0 0 0 - - - 0;
#X obj 161 146 slop~ 0 0 0 0 1e+09;
#X obj 239 18 inlet;
#X floatatom 239 57 5 0 0 0 - - - 0;
#X text 359 89 convert to hz;
#X text 282 118 hz;
#X text 284 57 peak decay time in ms;
#X obj 59 171 t f b;
#X text 345 132 The env~ object is dedicated to RMS analysis. Its output is in dB (0-100 range \, pd style) but needs to be converted to dBFS (and we do that by simply subtracting 100)., f 31;
#X text 345 225 The slop~ object is used here for peak detection. We need to convert the output to dB with rmstodb and also subtract by 100 to convert it to dBFS., f 31;
#X connect 0 0 18 0;
#X connect 1 0 12 0;
#X connect 2 0 3 0;
#X connect 3 0 5 0;
#X connect 4 0 0 0;
#X connect 4 0 1 0;
#X connect 5 0 8 0;
#X connect 6 0 7 0;
#X connect 10 0 11 0;
#X connect 11 0 12 3;
#X connect 12 0 2 0;
#X connect 13 0 14 0;
#X connect 14 0 10 0;
#X connect 18 0 6 0;
#X connect 18 1 2 0;
#X restore 372 482 pd vu;
#N canvas 329 161 625 417 vu 0;
#X obj 59 129 env~ 1024;
#X obj 161 111 abs~;
#X obj 161 213 snapshot~;
#X obj 161 256 rmstodb;
#X obj 161 21 inlet~;
#X obj 161 288 - 100;
#X obj 59 287 - 100;
#X obj 59 361 outlet;
#X obj 161 361 outlet;
#X text 344 307 Check the help file of env~ and slop~ for more details., f 31;
#X obj 239 89 expr 1000 / $f1;
#X floatatom 239 117 5 0 0 0 - - - 0;
#X obj 161 146 slop~ 0 0 0 0 1e+09;
#X obj 239 18 inlet;
#X floatatom 239 57 5 0 0 0 - - - 0;
#X text 359 89 convert to hz;
#X text 282 118 hz;
#X text 284 57 peak decay time in ms;
#X obj 59 171 t f b;
#X text 345 132 The env~ object is dedicated to RMS analysis. Its output is in dB (0-100 range \, pd style) but needs to be converted to dBFS (and we do that by simply subtracting 100)., f 31;
#X text 345 225 The slop~ object is used here for peak detection. We need to convert the output to dB with rmstodb and also subtract by 100 to convert it to dBFS., f 31;
#X connect 0 0 18 0;
#X connect 1 0 12 0;
#X connect 2 0 3 0;
#X connect 3 0 5 0;
#X connect 4 0 0 0;
#X connect 4 0 1 0;
#X connect 5 0 8 0;
#X connect 6 0 7 0;
#X connect 10 0 11 0;
#X connect 11 0 12 3;
#X connect 12 0 2 0;
#X connect 13 0 14 0;
#X connect 14 0 10 0;
#X connect 18 0 6 0;
#X connect 18 1 2 0;
#X restore 441 483 pd vu;
#X obj 435 113 loadbang;
#X msg 435 137 \; pd dsp 1;
#X obj 434 398 r \$0-main_volume;
#X obj 370 521 s \$0-vu-L;
#X obj 454 523 s \$0-vu-R;
#X obj 651 291 sampleSelector \$0;
#X obj 538 21 loadbang;
#X floatatom 804 227 5 0 0 0 - - - 0;
#X floatatom 892 228 5 0 0 0 - - - 0;
#X obj 817 327 s \$0-numsounds;
#X obj 862 228 bng 19 250 50 0 empty empty empty 0 -10 0 12 #fcfcfc #000000 #000000;
#X obj 636 377 r \$0-counterbang;
#X obj 636 401 bng 19 250 50 0 empty empty empty 0 -10 0 12 #fcfcfc #000000 #000000;
#X floatatom 692 493 5 0 0 0 - - - 0;
#X msg 634 479 1;
#X obj 634 503 +;
#X floatatom 634 527 5 0 0 0 - - - 0;
#X obj 634 550 %;
#X floatatom 634 574 5 0 0 0 - - - 0;
#X obj 692 469 r \$0-numsounds;
#X obj 635 606 s \$0-nextsound;
#X obj 533 79 ys.soundLoader;
#X obj 92 569 +~ 1;
#X obj 92 617 snapshot~;
#X obj 205 540 metro 50;
#X obj 224 393 loadbang;
#X floatatom 92 641 5 0 0 0 - - - 0;
#X obj 92 545 osc~ 0.005;
#X msg 157 479 0.5;
#X text 125 663 max intensity. this could maybe go up now?;
#X obj 92 593 /~ 4;
#X obj 67 358 bng 19 250 50 0 empty empty empty 0 -10 0 12 #fcfcfc #000000 #000000;
#X floatatom 64 492 15 0 0 0 - - - 0;
#X obj 146 417 random 100;
#X obj 146 441 / 100;
#X obj 88 203 r \$0-randomSeed;
#X msg 98 328 seed \$1;
#X obj 233 339 singleMemory_lite 1 \$0;
#X obj 92 696 s \$0-main_volume_rcv;
#X obj 242 258 r \$0-startall;
#X obj 496 332 t b f;
#X floatatom 130 255 5 0 0 0 - - - 0;
#X obj 82 296 t b f;
#X floatatom 113 420 5 0 0 0 - - - 0;
#X obj 67 389 random 1000;
#X obj 67 413 + 200;
#X obj 68 443 / 100000;
#X obj 130 278 * 0.7;
#X obj 1035 209 r 1701-library;
#X obj 1035 233 print;
#X msg 538 45 2;
#X connect 0 0 2 0;
#X connect 0 0 5 0;
#X connect 1 0 2 1;
#X connect 1 0 6 0;
#X connect 3 0 44 0;
#X connect 4 0 44 2;
#X connect 4 0 47 0;
#X connect 4 0 48 0;
#X connect 5 0 10 0;
#X connect 6 0 11 0;
#X connect 7 0 8 0;
#X connect 9 0 1 1;
#X connect 9 0 0 1;
#X connect 13 0 57 0;
#X connect 14 0 44 1;
#X connect 15 0 16 0;
#X connect 15 0 12 0;
#X connect 17 0 15 0;
#X connect 17 0 14 0;
#X connect 18 0 19 0;
#X connect 19 0 21 0;
#X connect 20 0 24 1;
#X connect 21 0 22 0;
#X connect 22 0 23 0;
#X connect 23 0 22 1;
#X connect 23 0 24 0;
#X connect 24 0 25 0;
#X connect 25 0 27 0;
#X connect 26 0 20 0;
#X connect 28 3 14 0;
#X connect 28 4 15 0;
#X connect 29 0 37 0;
#X connect 30 0 33 0;
#X connect 31 0 30 0;
#X connect 32 0 31 0;
#X connect 32 0 35 0;
#X connect 32 0 38 0;
#X connect 33 0 45 0;
#X connect 34 0 29 0;
#X connect 37 0 30 0;
#X connect 38 0 40 0;
#X connect 38 0 51 0;
#X connect 39 0 34 0;
#X connect 40 0 41 0;
#X connect 41 0 34 1;
#X connect 43 0 40 0;
#X connect 43 0 51 0;
#X connect 44 0 0 0;
#X connect 44 1 1 0;
#X connect 46 0 3 0;
#X connect 47 0 19 0;
#X connect 47 1 22 1;
#X connect 48 0 54 0;
#X connect 49 0 38 0;
#X connect 49 1 43 0;
#X connect 51 0 50 0;
#X connect 51 0 52 0;
#X connect 52 0 53 0;
#X connect 53 0 39 0;
#X connect 54 0 49 0;
#X connect 55 0 56 0;
#X connect 57 0 28 0;
#X restore 397 233 pd guts;
#X obj 17 12 cnv 19 250 220 empty empty memory\ machine 5 12 1 20 #c7c6ff #404040 0;
#X obj 42 56 vsl 40 162 0 1 0 1 \$0-main_volume \$0-main_volume_rcv volume 0 -9 0 12 #feffc6 #000000 #000000 1139 1;
#X obj 173 133 bng 40 250 50 0 stop_all \$0-stopall_rcv stop\ all 0 -10 0 12 #ff8300 #000000 #000000;
#X obj 174 69 bng 40 250 50 0 \$0-startall \$0-startall_rcv start\ all 0 -10 0 12 #00ff04 #000000 #000000;
#X obj 90 58 vu 8 160 \$0-vu-L empty 20 10 1 24 #404040 #000000 0 0;
#X obj 104 58 vu 8 160 \$0-vu-R empty 20 10 1 24 #404040 #000000 0 0;
#X obj 169 206 bng 14 250 50 0 reload_sounds_rcv empty reload\ sounds 15 6 0 10 #fcfcfc #000000 #000000;
#X msg 35 305 \; pd dsp 1;
#X obj 30 258 loadbang;
#X floatatom 398 196 5 0 0 0 - - - 0;
#X obj 393 157 inlet;
#X obj 441 157 i \$1;
#X obj 441 123 loadbang;
#X obj 283 31 r start_all;
#X text 119 351 just fades volume;
#X obj 549 167 inlet;
#X floatatom 549 191 5 0 0 0 - - - 0;
#X obj 542 262 tgl 19 0 empty empty empty 0 -10 0 12 #fcfcfc #000000 #000000 0 1;
#X obj 542 238 >= \$1;
#X obj 547 317 switch~;
#X connect 9 0 8 0;
#X connect 10 0 0 0;
#X connect 11 0 10 0;
#X connect 12 0 10 0;
#X connect 13 0 12 0;
#X connect 14 0 4 0;
#X connect 16 0 17 0;
#X connect 17 0 19 0;
#X connect 18 0 20 0;
#X connect 19 0 18 0;
