#N canvas 27 295 567 577 12;
#N canvas 428 63 974 809 guts 0;
#X obj 325 495 dac~;
#X obj 224 215 bng 19 250 50 0 empty empty empty 0 -10 0 12 #fcfcfc #000000 #000000;
#N canvas 329 161 625 417 vu 0;
#X obj 59 129 env~ 1024;
#X obj 161 111 abs~;
#X obj 161 213 snapshot~;
#X obj 161 256 rmstodb;
#X obj 161 21 inlet~;
#X obj 161 288 - 100;
#X obj 59 287 - 100;
#X obj 59 361 outlet;
#X obj 161 361 outlet;
#X text 344 307 Check the help file of env~ and slop~ for more details., f 31;
#X obj 239 89 expr 1000 / $f1;
#X floatatom 239 117 5 0 0 0 - - - 0;
#X obj 161 146 slop~ 0 0 0 0 1e+09;
#X obj 239 18 inlet;
#X floatatom 239 57 5 0 0 0 - - - 0;
#X text 359 89 convert to hz;
#X text 282 118 hz;
#X text 284 57 peak decay time in ms;
#X obj 59 171 t f b;
#X text 345 132 The env~ object is dedicated to RMS analysis. Its output is in dB (0-100 range \, pd style) but needs to be converted to dBFS (and we do that by simply subtracting 100)., f 31;
#X text 345 225 The slop~ object is used here for peak detection. We need to convert the output to dB with rmstodb and also subtract by 100 to convert it to dBFS., f 31;
#X connect 0 0 18 0;
#X connect 1 0 12 0;
#X connect 2 0 3 0;
#X connect 3 0 5 0;
#X connect 4 0 0 0;
#X connect 4 0 1 0;
#X connect 5 0 8 0;
#X connect 6 0 7 0;
#X connect 10 0 11 0;
#X connect 11 0 12 3;
#X connect 12 0 2 0;
#X connect 13 0 14 0;
#X connect 14 0 10 0;
#X connect 18 0 6 0;
#X connect 18 1 2 0;
#X restore 431 470 pd vu;
#N canvas 329 161 625 417 vu 0;
#X obj 59 129 env~ 1024;
#X obj 161 111 abs~;
#X obj 161 213 snapshot~;
#X obj 161 256 rmstodb;
#X obj 161 21 inlet~;
#X obj 161 288 - 100;
#X obj 59 287 - 100;
#X obj 59 361 outlet;
#X obj 161 361 outlet;
#X text 344 307 Check the help file of env~ and slop~ for more details., f 31;
#X obj 239 89 expr 1000 / $f1;
#X floatatom 239 117 5 0 0 0 - - - 0;
#X obj 161 146 slop~ 0 0 0 0 1e+09;
#X obj 239 18 inlet;
#X floatatom 239 57 5 0 0 0 - - - 0;
#X text 359 89 convert to hz;
#X text 282 118 hz;
#X text 284 57 peak decay time in ms;
#X obj 59 171 t f b;
#X text 345 132 The env~ object is dedicated to RMS analysis. Its output is in dB (0-100 range \, pd style) but needs to be converted to dBFS (and we do that by simply subtracting 100)., f 31;
#X text 345 225 The slop~ object is used here for peak detection. We need to convert the output to dB with rmstodb and also subtract by 100 to convert it to dBFS., f 31;
#X connect 0 0 18 0;
#X connect 1 0 12 0;
#X connect 2 0 3 0;
#X connect 3 0 5 0;
#X connect 4 0 0 0;
#X connect 4 0 1 0;
#X connect 5 0 8 0;
#X connect 6 0 7 0;
#X connect 10 0 11 0;
#X connect 11 0 12 3;
#X connect 12 0 2 0;
#X connect 13 0 14 0;
#X connect 14 0 10 0;
#X connect 18 0 6 0;
#X connect 18 1 2 0;
#X restore 500 471 pd vu;
#X obj 435 113 loadbang;
#X msg 435 137 \; pd dsp 1;
#X obj 429 509 s \$0-vu-L;
#X obj 513 511 s \$0-vu-R;
#X obj 453 647 nbx 5 17 -1e+37 1e+37 0 1 empty empty empty 0 -10 0 12 #fcfcfc #000000 #000000 170 256;
#X obj 452 545 loadbang;
#X obj 452 569 bng 19 250 50 0 empty empty empty 0 -10 0 12 #fcfcfc #000000 #000000;
#X obj 452 615 +;
#X msg 452 593 1;
#X msg 433 765 menusave;
#X obj 430 809 s pd-subpatch;
#N canvas 96 86 771 708 subpatch 0;
#X coords 0 -1 1 1 50 50 1 100 100;
#X restore 201 817 pd subpatch;
#X obj 432 686 t b f;
#X obj 791 271 sampleSelector \$0;
#X obj 538 21 loadbang;
#X msg 538 45 1;
#X floatatom 804 227 5 0 0 0 - - - 0;
#X floatatom 892 228 5 0 0 0 - - - 0;
#X obj 817 327 s \$0-numsounds;
#X obj 862 228 bng 19 250 50 0 empty empty empty 0 -10 0 12 #fcfcfc #000000 #000000;
#X obj 636 377 r \$0-counterbang;
#X obj 636 401 bng 19 250 50 0 empty empty empty 0 -10 0 12 #fcfcfc #000000 #000000;
#X floatatom 692 493 5 0 0 0 - - - 0;
#X msg 634 479 1;
#X obj 634 503 +;
#X floatatom 634 527 5 0 0 0 - - - 0;
#X obj 634 550 %;
#X floatatom 634 574 5 0 0 0 - - - 0;
#X obj 692 469 r \$0-numsounds;
#X obj 635 606 s \$0-nextsound;
#X msg 266 290 vis 1 1;
#X obj 399 719 s \$0-randomSeed;
#X obj 533 79 ys.soundLoader;
#X obj 95 342 r offset;
#X obj 93 411 s intensityOffset;
#X floatatom 95 366 5 0 0 0 - - - 0;
#X msg 427 298 all \$1;
#X obj 235 341 clone singleMemory_ultralite 4 1 \$0;
#X connect 1 0 41 0;
#X connect 2 0 6 0;
#X connect 3 0 7 0;
#X connect 4 0 5 0;
#X connect 8 0 11 1;
#X connect 8 0 16 0;
#X connect 9 0 10 0;
#X connect 10 0 12 0;
#X connect 11 0 8 0;
#X connect 12 0 11 0;
#X connect 13 0 14 0;
#X connect 16 0 13 0;
#X connect 16 1 35 0;
#X connect 18 0 19 0;
#X connect 19 0 36 0;
#X connect 20 0 40 0;
#X connect 21 0 17 0;
#X connect 21 0 22 0;
#X connect 23 0 21 0;
#X connect 23 0 20 0;
#X connect 24 0 25 0;
#X connect 25 0 27 0;
#X connect 26 0 30 1;
#X connect 27 0 28 0;
#X connect 28 0 29 0;
#X connect 29 0 28 1;
#X connect 29 0 30 0;
#X connect 30 0 31 0;
#X connect 31 0 33 0;
#X connect 32 0 26 0;
#X connect 34 0 41 0;
#X connect 36 3 20 0;
#X connect 36 4 21 0;
#X connect 37 0 39 0;
#X connect 39 0 38 0;
#X connect 40 0 41 1;
#X connect 41 0 0 0;
#X connect 41 0 2 0;
#X connect 41 1 0 1;
#X connect 41 1 3 0;
#X restore 208 239 pd guts;
#X obj 17 12 cnv 19 250 220 empty empty memory\ machine 5 12 1 20 #c7c6ff #404040 0;
#X obj 173 133 bng 40 250 50 0 stop_all \$0-stopall_rcv stop\ all 0 -10 0 12 #ff8300 #000000 #000000;
#X obj 120 55 vsl 40 162 0 10 0 1 intensity \$0-intensity_rcv intensity -10 -9 0 12 #c6feff #000000 #000000 0 1;
#X obj 174 69 bng 40 250 50 0 \$0-startall \$0-startall_rcv start\ all 0 -10 0 12 #00ff04 #000000 #000000;
#X obj 90 58 vu 8 160 \$0-vu-L empty 20 10 1 24 #404040 #000000 0 0;
#X obj 104 58 vu 8 160 \$0-vu-R empty 20 10 1 24 #404040 #000000 0 0;
#X obj 169 206 bng 14 250 50 0 reload_sounds_rcv empty reload\ sounds 15 6 0 10 #fcfcfc #000000 #000000;
#X msg 347 141 \; pd dsp 1;
#X obj 342 94 loadbang;
#X floatatom 439 120 5 0 0 0 - - - 0;
#X obj 439 96 r offset;
#X obj 209 356 loadbang;
#X obj 235 390 stdout;
#X connect 9 0 8 0;
#X connect 11 0 10 0;
#X connect 12 0 13 0;
