#N canvas 312 161 567 577 12;
#N canvas 621 113 697 496 guts 0;
#X obj 227 342 *~;
#X obj 263 337 *~;
#X obj 238 403 dac~;
#X obj 224 215 bng 19 250 50 0 empty empty empty 0 -10 0 12 #fcfcfc #000000 #000000;
#X obj 328 272 inlet;
#N canvas 329 161 625 417 vu 0;
#X obj 59 129 env~ 1024;
#X obj 161 111 abs~;
#X obj 161 213 snapshot~;
#X obj 161 256 rmstodb;
#X obj 161 21 inlet~;
#X obj 161 288 - 100;
#X obj 59 287 - 100;
#X obj 59 361 outlet;
#X obj 161 361 outlet;
#X text 344 307 Check the help file of env~ and slop~ for more details., f 31;
#X obj 239 89 expr 1000 / $f1;
#X floatatom 239 117 5 0 0 0 - - - 0;
#X obj 161 146 slop~ 0 0 0 0 1e+09;
#X obj 239 18 inlet;
#X floatatom 239 57 5 0 0 0 - - - 0;
#X text 359 89 convert to hz;
#X text 282 118 hz;
#X text 284 57 peak decay time in ms;
#X obj 59 171 t f b;
#X text 345 132 The env~ object is dedicated to RMS analysis. Its output is in dB (0-100 range \, pd style) but needs to be converted to dBFS (and we do that by simply subtracting 100)., f 31;
#X text 345 225 The slop~ object is used here for peak detection. We need to convert the output to dB with rmstodb and also subtract by 100 to convert it to dBFS., f 31;
#X connect 0 0 18 0;
#X connect 1 0 12 0;
#X connect 2 0 3 0;
#X connect 3 0 5 0;
#X connect 4 0 0 0;
#X connect 4 0 1 0;
#X connect 5 0 8 0;
#X connect 6 0 7 0;
#X connect 10 0 11 0;
#X connect 11 0 12 3;
#X connect 12 0 2 0;
#X connect 13 0 14 0;
#X connect 14 0 10 0;
#X connect 18 0 6 0;
#X connect 18 1 2 0;
#X restore 344 378 pd vu;
#N canvas 329 161 625 417 vu 0;
#X obj 59 129 env~ 1024;
#X obj 161 111 abs~;
#X obj 161 213 snapshot~;
#X obj 161 256 rmstodb;
#X obj 161 21 inlet~;
#X obj 161 288 - 100;
#X obj 59 287 - 100;
#X obj 59 361 outlet;
#X obj 161 361 outlet;
#X text 344 307 Check the help file of env~ and slop~ for more details., f 31;
#X obj 239 89 expr 1000 / $f1;
#X floatatom 239 117 5 0 0 0 - - - 0;
#X obj 161 146 slop~ 0 0 0 0 1e+09;
#X obj 239 18 inlet;
#X floatatom 239 57 5 0 0 0 - - - 0;
#X text 359 89 convert to hz;
#X text 282 118 hz;
#X text 284 57 peak decay time in ms;
#X obj 59 171 t f b;
#X text 345 132 The env~ object is dedicated to RMS analysis. Its output is in dB (0-100 range \, pd style) but needs to be converted to dBFS (and we do that by simply subtracting 100)., f 31;
#X text 345 225 The slop~ object is used here for peak detection. We need to convert the output to dB with rmstodb and also subtract by 100 to convert it to dBFS., f 31;
#X connect 0 0 18 0;
#X connect 1 0 12 0;
#X connect 2 0 3 0;
#X connect 3 0 5 0;
#X connect 4 0 0 0;
#X connect 4 0 1 0;
#X connect 5 0 8 0;
#X connect 6 0 7 0;
#X connect 10 0 11 0;
#X connect 11 0 12 3;
#X connect 12 0 2 0;
#X connect 13 0 14 0;
#X connect 14 0 10 0;
#X connect 18 0 6 0;
#X connect 18 1 2 0;
#X restore 413 379 pd vu;
#X obj 435 113 loadbang;
#X msg 435 137 \; pd dsp 1;
#X obj 347 306 r \$0-main_volume;
#X obj 146 247 clone singleMemory 50 1 \$0;
#X obj 342 417 s \$0-vu-L;
#X obj 426 419 s \$0-vu-R;
#X connect 0 0 2 0;
#X connect 0 0 5 0;
#X connect 1 0 2 1;
#X connect 1 0 6 0;
#X connect 3 0 10 0;
#X connect 4 0 1 1;
#X connect 4 0 0 1;
#X connect 5 0 11 0;
#X connect 6 0 12 0;
#X connect 7 0 8 0;
#X connect 9 0 1 1;
#X connect 9 0 0 1;
#X connect 10 0 0 0;
#X connect 10 1 1 0;
#X restore 207 240 pd guts;
#X obj 17 12 cnv 19 250 220 empty empty memory\ machine 5 12 1 20 #c7c6ff #404040 0;
#X obj 42 56 vsl 40 162 0 1 0 1 \$0-main_volume empty volume 0 -9 0 12 #feffc6 #000000 #000000 13000 1;
#X obj 173 133 bng 40 250 50 0 stop_all empty stop\ all 0 -10 0 12 #ff8300 #000000 #000000;
#X obj 120 55 vsl 40 162 0 50 0 1 \$0-intensity empty intensity -10 -9 0 12 #c6feff #000000 #000000 2000 1;
#X obj 174 69 bng 40 250 50 0 empty empty start\ all 0 -10 0 12 #00ff04 #000000 #000000;
#X obj 90 58 vu 8 160 \$0-vu-L empty 20 10 1 24 #404040 #000000 0 0;
#X obj 104 58 vu 8 160 \$0-vu-R empty 20 10 1 24 #404040 #000000 0 0;
#X text 27 241 instructions:;
#X text 30 260 - put lots of sound files into the "sounds" folder;
#X text 30 282 - sounds should be 44.1khz. other sample rates will work but sound strange.;
#X text 31 319 - 16bit or 24bit should both work \, i think;
#X text 32 346 - wav \, aif \, and aiff files are supported;
#X obj 169 206 bng 14 250 50 0 reload_sounds_rcv empty reload\ sounds 15 6 0 10 #fcfcfc #000000 #000000;
#X text 33 411 - relaunch this patch or click "reload sounds" if you put sound in;
#X text 34 452 - the sounds should be generated automatically on launch \, and you can adjust the overall volume and the "intensity";
#X text 32 373 - mono or stereo \, any lenght (i haven't tested with very very long files but it should work);
#X text 26 496 - make sure the sounds are on the hard drive and not on the cloud or something. Dropbox and iCloud both often offload files to the cloud by default now.;
