#N canvas 16 40 1385 832 12;
#X obj 667 84 loadbang;
#X msg 669 109 \; pd dsp 1;
#X text 25 22 this seems like the most stable version on Pi;
#X text 23 50 four memories at a time \, fading in and out;
#X obj 782 33 loadbang;
#X msg 782 57 1;
#X floatatom 1115 260 5 0 0 0 - - - 0;
#X obj 1102 227 bng 19 250 50 0 empty empty empty 0 -10 0 12 #fcfcfc #000000 #000000;
#X obj 777 91 ys.soundLoader;
#X obj 970 303 sampleSelector 1;
#X obj 1094 303 s 1-numsounds;
#X obj 331 419 pd~ -noutsig 2;
#X msg 259 380 pd~ stop;
#X msg 391 354 start_here \$1;
#X obj 729 308 nbx 5 17 -1e+37 1e+37 0 1 empty empty empty 0 -10 0 12 #fcfcfc #000000 #000000 332 256;
#X obj 876 229 loadbang;
#X obj 331 219 bng 19 250 50 0 empty empty empty 0 -10 0 12 #fcfcfc #000000 #000000;
#X obj 728 276 +;
#X msg 728 254 1;
#X msg 730 361 menusave;
#X obj 727 405 s pd-subpatch;
#N canvas 96 86 771 708 subpatch 0;
#X coords 0 -1 1 1 50 50 1 100 100;
#X restore 1176 105 pd subpatch;
#X obj 730 338 t b f;
#X obj 527 356 route hello nextsound;
#X floatatom 590 400 5 0 0 0 - - - 0;
#X floatatom 527 394 5 0 0 0 - - - 0;
#X obj 418 302 t b;
#X obj 417 327 f;
#X obj 412 274 bng 19 250 50 0 empty empty empty 0 -10 0 12 #fcfcfc #000000 #000000;
#X obj 526 465 bng 19 250 50 0 empty empty empty 0 -10 0 12 #fcfcfc #000000 #000000;
#X obj 526 419 t b;
#X obj 526 441 delay 1000;
#X obj 352 454 throw~ outputL;
#X obj 373 507 throw~ outputR;
#X obj 47 670 writesf~ 2;
#X msg 4 575 start;
#X msg 11 603 stop;
#X msg -3 543 open testRecord.wav;
#X obj 50 600 catch~ outputL;
#X obj 166 604 catch~ outputR;
#X obj 88 642 dac~;
#X msg 332 247 pd~ start -nogui memoryMachine_lite.pd;
#X obj 37 322 s stopall;
#X obj 37 294 bng 19 250 50 0 empty empty empty 0 -10 0 12 #fcfcfc #000000 #000000;
#X obj 260 351 r stopall;
#X obj 384 768 pd~ -noutsig 2;
#X msg 312 729 pd~ stop;
#X msg 444 703 start_here \$1;
#X obj 739 655 nbx 5 17 -1e+37 1e+37 0 1 empty empty empty 0 -10 0 12 #fcfcfc #000000 #000000 473 256;
#X obj 384 568 bng 19 250 50 0 empty empty empty 0 -10 0 12 #fcfcfc #000000 #000000;
#X obj 738 623 +;
#X msg 738 601 1;
#X msg 740 708 menusave;
#X obj 737 752 s pd-subpatch;
#X obj 740 685 t b f;
#X obj 580 705 route hello nextsound;
#X floatatom 643 749 5 0 0 0 - - - 0;
#X floatatom 580 743 5 0 0 0 - - - 0;
#X obj 471 651 t b;
#X obj 470 676 f;
#X obj 465 623 bng 19 250 50 0 empty empty empty 0 -10 0 12 #fcfcfc #000000 #000000;
#X obj 579 814 bng 19 250 50 0 empty empty empty 0 -10 0 12 #fcfcfc #000000 #000000;
#X obj 579 768 t b;
#X obj 579 790 delay 1000;
#X obj 405 803 throw~ outputL;
#X obj 426 856 throw~ outputR;
#X msg 385 596 pd~ start -nogui memoryMachine_lite.pd;
#X obj 313 700 r stopall;
#X obj 332 194 r startall;
#X obj 380 541 r startall;
#X obj 36 230 bng 19 250 50 0 empty empty empty 0 -10 0 12 #fcfcfc #000000 #000000;
#X obj 36 258 s startall;
#X obj 885 575 pd~ -noutsig 2;
#X msg 813 536 pd~ stop;
#X msg 945 510 start_here \$1;
#X obj 1283 464 nbx 5 17 -1e+37 1e+37 0 1 empty empty empty 0 -10 0 12 #fcfcfc #000000 #000000 573 256;
#X obj 885 375 bng 19 250 50 0 empty empty empty 0 -10 0 12 #fcfcfc #000000 #000000;
#X obj 1282 432 +;
#X msg 1282 410 1;
#X msg 1284 517 menusave;
#X obj 1281 561 s pd-subpatch;
#X obj 1284 494 t b f;
#X obj 1081 512 route hello nextsound;
#X floatatom 1144 556 5 0 0 0 - - - 0;
#X floatatom 1081 550 5 0 0 0 - - - 0;
#X obj 972 458 t b;
#X obj 971 483 f;
#X obj 966 430 bng 19 250 50 0 empty empty empty 0 -10 0 12 #fcfcfc #000000 #000000;
#X obj 1080 621 bng 19 250 50 0 empty empty empty 0 -10 0 12 #fcfcfc #000000 #000000;
#X obj 1080 575 t b;
#X obj 1080 597 delay 1000;
#X obj 906 610 throw~ outputL;
#X obj 942 605 throw~ outputR;
#X msg 886 403 pd~ start -nogui memoryMachine_lite.pd;
#X obj 814 507 r stopall;
#X obj 938 924 pd~ -noutsig 2;
#X msg 866 885 pd~ stop;
#X msg 998 859 start_here \$1;
#X obj 1336 813 nbx 5 17 -1e+37 1e+37 0 1 empty empty empty 0 -10 0 12 #fcfcfc #000000 #000000 699 256;
#X obj 938 724 bng 19 250 50 0 empty empty empty 0 -10 0 12 #fcfcfc #000000 #000000;
#X obj 1335 781 +;
#X msg 1335 759 1;
#X msg 1337 866 menusave;
#X obj 1334 910 s pd-subpatch;
#X obj 1337 843 t b f;
#X obj 1134 861 route hello nextsound;
#X floatatom 1197 905 5 0 0 0 - - - 0;
#X floatatom 1134 899 5 0 0 0 - - - 0;
#X obj 1025 807 t b;
#X obj 1024 832 f;
#X obj 1019 779 bng 19 250 50 0 empty empty empty 0 -10 0 12 #fcfcfc #000000 #000000;
#X obj 1133 970 bng 19 250 50 0 empty empty empty 0 -10 0 12 #fcfcfc #000000 #000000;
#X obj 1133 924 t b;
#X obj 1133 946 delay 1000;
#X obj 959 959 throw~ outputL;
#X obj 980 1012 throw~ outputR;
#X msg 939 752 pd~ start -nogui memoryMachine_lite.pd;
#X obj 867 856 r stopall;
#X obj 886 350 r startall;
#X obj 934 697 r startall;
#X floatatom 87 484 5 0 0 0 - - - 0;
#X floatatom 191 491 5 0 0 0 - - - 0;
#X floatatom 193 926 5 0 0 0 - - - 0;
#X floatatom 306 927 5 0 0 0 - - - 0;
#X floatatom 658 990 5 0 0 0 - - - 0;
#X floatatom 762 997 5 0 0 0 - - - 0;
#X floatatom 849 664 5 0 0 0 - - - 0;
#X floatatom 953 671 5 0 0 0 - - - 0;
#X obj 44 175 loadbang;
#X obj 26 454 route current_volume current_pan file_name;
#X obj 243 488 symbol;
#X symbolatom 241 516 17 0 0 0 - - - 0;
#X obj 393 935 symbol;
#X symbolatom 391 963 17 0 0 0 - - - 0;
#X obj 1084 671 symbol;
#X symbolatom 1082 699 17 0 0 0 - - - 0;
#X obj 836 996 symbol;
#X symbolatom 834 1024 17 0 0 0 - - - 0;
#X obj 199 903 route current_volume current_pan file_name;
#X obj 658 966 route current_volume current_pan file_name;
#X obj 849 640 route current_volume current_pan file_name;
#X obj 368 1020 text define soundlist;
#X msg 559 908 write soundlist.txt;
#X obj 208 1041 text set soundlist;
#X msg 259 1000 100000;
#X obj 232 630 text set soundlist;
#X msg 283 589 100000;
#X obj 1220 729 text set soundlist;
#X msg 1271 688 100000;
#X obj 1077 1055 text set soundlist;
#X msg 1128 1014 100000;
#X obj 268 964 loadbang;
#X obj 283 550 loadbang;
#X obj 1270 649 loadbang;
#X obj 1195 979 loadbang;
#X connect 0 0 1 0;
#X connect 4 0 5 0;
#X connect 5 0 8 0;
#X connect 6 0 9 0;
#X connect 6 0 10 0;
#X connect 7 0 6 0;
#X connect 8 4 6 0;
#X connect 11 0 23 0;
#X connect 11 0 129 0;
#X connect 11 1 32 0;
#X connect 11 2 33 0;
#X connect 12 0 11 0;
#X connect 13 0 11 0;
#X connect 14 0 17 1;
#X connect 14 0 22 0;
#X connect 14 0 27 1;
#X connect 16 0 41 0;
#X connect 17 0 14 0;
#X connect 18 0 17 0;
#X connect 19 0 20 0;
#X connect 22 0 19 0;
#X connect 23 0 25 0;
#X connect 23 1 24 0;
#X connect 24 0 14 0;
#X connect 25 0 30 0;
#X connect 26 0 27 0;
#X connect 27 0 13 0;
#X connect 28 0 26 0;
#X connect 29 0 28 0;
#X connect 30 0 31 0;
#X connect 31 0 29 0;
#X connect 35 0 34 0;
#X connect 36 0 34 0;
#X connect 37 0 34 0;
#X connect 38 0 34 0;
#X connect 38 0 40 0;
#X connect 39 0 34 1;
#X connect 39 0 40 1;
#X connect 41 0 11 0;
#X connect 43 0 42 0;
#X connect 44 0 12 0;
#X connect 45 0 55 0;
#X connect 45 0 138 0;
#X connect 45 1 64 0;
#X connect 45 2 65 0;
#X connect 46 0 45 0;
#X connect 47 0 45 0;
#X connect 48 0 50 1;
#X connect 48 0 54 0;
#X connect 48 0 59 1;
#X connect 49 0 66 0;
#X connect 50 0 48 0;
#X connect 51 0 50 0;
#X connect 52 0 53 0;
#X connect 54 0 52 0;
#X connect 54 0 142 0;
#X connect 55 0 57 0;
#X connect 55 1 56 0;
#X connect 56 0 48 0;
#X connect 57 0 62 0;
#X connect 58 0 59 0;
#X connect 59 0 47 0;
#X connect 60 0 58 0;
#X connect 61 0 60 0;
#X connect 62 0 63 0;
#X connect 63 0 61 0;
#X connect 66 0 45 0;
#X connect 67 0 46 0;
#X connect 68 0 16 0;
#X connect 69 0 49 0;
#X connect 70 0 71 0;
#X connect 72 0 82 0;
#X connect 72 0 140 0;
#X connect 72 1 91 0;
#X connect 72 2 92 0;
#X connect 73 0 72 0;
#X connect 74 0 72 0;
#X connect 75 0 77 1;
#X connect 75 0 81 0;
#X connect 75 0 86 1;
#X connect 76 0 93 0;
#X connect 77 0 75 0;
#X connect 78 0 77 0;
#X connect 79 0 80 0;
#X connect 81 0 79 0;
#X connect 82 0 84 0;
#X connect 82 1 83 0;
#X connect 83 0 75 0;
#X connect 84 0 89 0;
#X connect 85 0 86 0;
#X connect 86 0 74 0;
#X connect 87 0 85 0;
#X connect 88 0 87 0;
#X connect 89 0 90 0;
#X connect 90 0 88 0;
#X connect 93 0 72 0;
#X connect 94 0 73 0;
#X connect 95 0 105 0;
#X connect 95 0 139 0;
#X connect 95 1 114 0;
#X connect 95 2 115 0;
#X connect 96 0 95 0;
#X connect 97 0 95 0;
#X connect 98 0 100 1;
#X connect 98 0 104 0;
#X connect 98 0 109 1;
#X connect 99 0 116 0;
#X connect 100 0 98 0;
#X connect 101 0 100 0;
#X connect 102 0 103 0;
#X connect 104 0 102 0;
#X connect 105 0 107 0;
#X connect 105 1 106 0;
#X connect 106 0 98 0;
#X connect 107 0 112 0;
#X connect 108 0 109 0;
#X connect 109 0 97 0;
#X connect 110 0 108 0;
#X connect 111 0 110 0;
#X connect 112 0 113 0;
#X connect 113 0 111 0;
#X connect 116 0 95 0;
#X connect 117 0 96 0;
#X connect 118 0 76 0;
#X connect 119 0 99 0;
#X connect 128 0 70 0;
#X connect 129 0 120 0;
#X connect 129 1 121 0;
#X connect 129 2 130 0;
#X connect 130 0 131 0;
#X connect 131 0 145 0;
#X connect 132 0 133 0;
#X connect 133 0 143 0;
#X connect 134 0 135 0;
#X connect 135 0 147 0;
#X connect 136 0 137 0;
#X connect 137 0 149 0;
#X connect 138 0 122 0;
#X connect 138 1 123 0;
#X connect 138 2 132 0;
#X connect 139 0 124 0;
#X connect 139 1 125 0;
#X connect 139 2 136 0;
#X connect 140 0 126 0;
#X connect 140 1 127 0;
#X connect 140 2 134 0;
#X connect 142 0 141 0;
#X connect 144 0 143 1;
#X connect 146 0 145 1;
#X connect 148 0 147 1;
#X connect 150 0 149 1;
#X connect 151 0 144 0;
#X connect 152 0 146 0;
#X connect 153 0 148 0;
#X connect 154 0 150 0;
