#N canvas 637 148 567 577 12;
#N canvas 38 63 974 809 guts 0;
#X obj 314 434 *~;
#X obj 357 437 *~;
#X obj 325 495 dac~;
#X obj 224 215 bng 19 250 50 0 empty empty empty 0 -10 0 12 #fcfcfc #000000 #000000;
#X obj 415 364 inlet;
#N canvas 329 161 625 417 vu 0;
#X obj 59 129 env~ 1024;
#X obj 161 111 abs~;
#X obj 161 213 snapshot~;
#X obj 161 256 rmstodb;
#X obj 161 21 inlet~;
#X obj 161 288 - 100;
#X obj 59 287 - 100;
#X obj 59 361 outlet;
#X obj 161 361 outlet;
#X text 344 307 Check the help file of env~ and slop~ for more details., f 31;
#X obj 239 89 expr 1000 / $f1;
#X floatatom 239 117 5 0 0 0 - - - 0;
#X obj 161 146 slop~ 0 0 0 0 1e+09;
#X obj 239 18 inlet;
#X floatatom 239 57 5 0 0 0 - - - 0;
#X text 359 89 convert to hz;
#X text 282 118 hz;
#X text 284 57 peak decay time in ms;
#X obj 59 171 t f b;
#X text 345 132 The env~ object is dedicated to RMS analysis. Its output is in dB (0-100 range \, pd style) but needs to be converted to dBFS (and we do that by simply subtracting 100)., f 31;
#X text 345 225 The slop~ object is used here for peak detection. We need to convert the output to dB with rmstodb and also subtract by 100 to convert it to dBFS., f 31;
#X connect 0 0 18 0;
#X connect 1 0 12 0;
#X connect 2 0 3 0;
#X connect 3 0 5 0;
#X connect 4 0 0 0;
#X connect 4 0 1 0;
#X connect 5 0 8 0;
#X connect 6 0 7 0;
#X connect 10 0 11 0;
#X connect 11 0 12 3;
#X connect 12 0 2 0;
#X connect 13 0 14 0;
#X connect 14 0 10 0;
#X connect 18 0 6 0;
#X connect 18 1 2 0;
#X restore 431 470 pd vu;
#N canvas 329 161 625 417 vu 0;
#X obj 59 129 env~ 1024;
#X obj 161 111 abs~;
#X obj 161 213 snapshot~;
#X obj 161 256 rmstodb;
#X obj 161 21 inlet~;
#X obj 161 288 - 100;
#X obj 59 287 - 100;
#X obj 59 361 outlet;
#X obj 161 361 outlet;
#X text 344 307 Check the help file of env~ and slop~ for more details., f 31;
#X obj 239 89 expr 1000 / $f1;
#X floatatom 239 117 5 0 0 0 - - - 0;
#X obj 161 146 slop~ 0 0 0 0 1e+09;
#X obj 239 18 inlet;
#X floatatom 239 57 5 0 0 0 - - - 0;
#X text 359 89 convert to hz;
#X text 282 118 hz;
#X text 284 57 peak decay time in ms;
#X obj 59 171 t f b;
#X text 345 132 The env~ object is dedicated to RMS analysis. Its output is in dB (0-100 range \, pd style) but needs to be converted to dBFS (and we do that by simply subtracting 100)., f 31;
#X text 345 225 The slop~ object is used here for peak detection. We need to convert the output to dB with rmstodb and also subtract by 100 to convert it to dBFS., f 31;
#X connect 0 0 18 0;
#X connect 1 0 12 0;
#X connect 2 0 3 0;
#X connect 3 0 5 0;
#X connect 4 0 0 0;
#X connect 4 0 1 0;
#X connect 5 0 8 0;
#X connect 6 0 7 0;
#X connect 10 0 11 0;
#X connect 11 0 12 3;
#X connect 12 0 2 0;
#X connect 13 0 14 0;
#X connect 14 0 10 0;
#X connect 18 0 6 0;
#X connect 18 1 2 0;
#X restore 500 471 pd vu;
#X obj 435 113 loadbang;
#X msg 435 137 \; pd dsp 1;
#X obj 434 398 r \$0-main_volume;
#X obj 429 509 s \$0-vu-L;
#X obj 513 511 s \$0-vu-R;
#X obj 453 647 nbx 5 17 -1e+37 1e+37 0 1 empty empty empty 0 -10 0 12 #fcfcfc #000000 #000000 93 256;
#X obj 452 545 loadbang;
#X obj 452 569 bng 19 250 50 0 empty empty empty 0 -10 0 12 #fcfcfc #000000 #000000;
#X obj 452 615 +;
#X msg 452 593 1;
#X msg 433 765 menusave;
#X obj 430 809 s pd-subpatch;
#N canvas 96 86 771 708 subpatch 0;
#X coords 0 -1 1 1 50 50 1 100 100;
#X restore 201 817 pd subpatch;
#X obj 432 686 t b f;
#X obj 791 271 sampleSelector \$0;
#X obj 538 21 loadbang;
#X msg 538 45 1;
#X floatatom 804 227 5 0 0 0 - - - 0;
#X floatatom 892 228 5 0 0 0 - - - 0;
#X obj 817 327 s \$0-numsounds;
#X obj 862 228 bng 19 250 50 0 empty empty empty 0 -10 0 12 #fcfcfc #000000 #000000;
#X obj 636 377 r \$0-counterbang;
#X obj 636 401 bng 19 250 50 0 empty empty empty 0 -10 0 12 #fcfcfc #000000 #000000;
#X floatatom 692 493 5 0 0 0 - - - 0;
#X msg 634 479 1;
#X obj 634 503 +;
#X floatatom 634 527 5 0 0 0 - - - 0;
#X obj 634 550 %;
#X floatatom 634 574 5 0 0 0 - - - 0;
#X obj 692 469 r \$0-numsounds;
#X obj 635 606 s \$0-nextsound;
#X msg 266 290 vis 1 1;
#X obj 399 719 s \$0-randomSeed;
#X obj 533 79 ys.soundLoader;
#X obj 92 569 +~ 1;
#X obj 92 617 snapshot~;
#X obj 205 540 metro 50;
#X obj 201 433 loadbang;
#X floatatom 92 641 5 0 0 0 - - - 0;
#X obj 92 545 osc~ 0.005;
#X msg 157 479 0.5;
#X text 125 663 max intensity. this could maybe go up now?;
#X obj 92 593 /~ 4;
#X obj 68 443 / 1000;
#X obj 67 358 bng 19 250 50 0 empty empty empty 0 -10 0 12 #fcfcfc #000000 #000000;
#X floatatom 64 492 5 0 0 0 - - - 0;
#X obj 67 389 random 5;
#X obj 67 413 + 2;
#X obj 146 417 random 100;
#X obj 146 441 / 100;
#X obj 98 304 r \$0-randomSeed;
#X msg 98 328 seed \$1;
#X obj 233 339 singleMemory_lite 1 \$0;
#X obj 92 696 s \$0-main_volume_rcv;
#X connect 0 0 2 0;
#X connect 0 0 5 0;
#X connect 1 0 2 1;
#X connect 1 0 6 0;
#X connect 3 0 59 0;
#X connect 4 0 1 1;
#X connect 4 0 0 1;
#X connect 5 0 10 0;
#X connect 6 0 11 0;
#X connect 7 0 8 0;
#X connect 9 0 1 1;
#X connect 9 0 0 1;
#X connect 12 0 15 1;
#X connect 12 0 20 0;
#X connect 13 0 14 0;
#X connect 14 0 16 0;
#X connect 15 0 12 0;
#X connect 16 0 15 0;
#X connect 17 0 18 0;
#X connect 20 0 17 0;
#X connect 20 1 39 0;
#X connect 20 1 59 2;
#X connect 22 0 23 0;
#X connect 23 0 40 0;
#X connect 24 0 59 1;
#X connect 25 0 21 0;
#X connect 25 0 26 0;
#X connect 27 0 25 0;
#X connect 27 0 24 0;
#X connect 28 0 29 0;
#X connect 29 0 31 0;
#X connect 30 0 34 1;
#X connect 31 0 32 0;
#X connect 32 0 33 0;
#X connect 33 0 32 1;
#X connect 33 0 34 0;
#X connect 34 0 35 0;
#X connect 35 0 37 0;
#X connect 36 0 30 0;
#X connect 38 0 59 0;
#X connect 40 3 24 0;
#X connect 40 4 25 0;
#X connect 41 0 49 0;
#X connect 42 0 45 0;
#X connect 43 0 42 0;
#X connect 44 0 43 0;
#X connect 44 0 47 0;
#X connect 44 0 51 0;
#X connect 45 0 60 0;
#X connect 46 0 41 0;
#X connect 49 0 42 0;
#X connect 50 0 52 0;
#X connect 51 0 53 0;
#X connect 51 0 55 0;
#X connect 52 0 46 0;
#X connect 53 0 54 0;
#X connect 54 0 50 0;
#X connect 55 0 56 0;
#X connect 56 0 46 1;
#X connect 57 0 58 0;
#X connect 58 0 53 0;
#X connect 58 0 55 0;
#X connect 59 0 0 0;
#X connect 59 1 1 0;
#X restore 208 239 pd guts;
#X obj 17 12 cnv 19 250 220 empty empty memory\ machine 5 12 1 20 #c7c6ff #404040 0;
#X obj 42 56 vsl 40 162 0 1 0 1 \$0-main_volume \$0-main_volume_rcv volume 0 -9 0 12 #feffc6 #000000 #000000 6514 1;
#X obj 173 133 bng 40 250 50 0 stop_all \$0-stopall_rcv stop\ all 0 -10 0 12 #ff8300 #000000 #000000;
#X obj 120 55 vsl 40 162 0 10 0 1 \$0-intensity \$0-intensity_rcv intensity -10 -9 0 12 #c6feff #000000 #000000 13413 1;
#X obj 174 69 bng 40 250 50 0 \$0-startall \$0-startall_rcv start\ all 0 -10 0 12 #00ff04 #000000 #000000;
#X obj 90 58 vu 8 160 \$0-vu-L empty 20 10 1 24 #404040 #000000 0 0;
#X obj 104 58 vu 8 160 \$0-vu-R empty 20 10 1 24 #404040 #000000 0 0;
#X text 27 241 instructions:;
#X text 30 260 - put lots of sound files into the "sounds" folder;
#X text 30 282 - sounds should be 44.1khz. other sample rates will work but sound strange.;
#X text 31 319 - 16bit or 24bit should both work \, i think;
#X text 32 346 - wav \, aif \, and aiff files are supported;
#X obj 169 206 bng 14 250 50 0 reload_sounds_rcv empty reload\ sounds 15 6 0 10 #fcfcfc #000000 #000000;
#X text 33 410 - relaunch this patch or click "reload sounds" if you put sound in;
#X text 34 452 - the sounds should be generated automatically on launch \, and you can adjust the overall volume and the "intensity";
#X text 32 373 - mono or stereo \, any lenght (i haven't tested with very very long files but it should work);
#X text 26 496 - make sure the sounds are on the hard drive and not on the cloud or something. Dropbox and iCloud both often offload files to the cloud by default now.;
#X msg 347 141 \; pd dsp 1;
#X obj 342 94 loadbang;
#X connect 19 0 18 0;
