#N canvas 353 119 834 645 12;
#X obj 100 321 pd~ -noutsig 2;
#X obj 226 323 pd~ -noutsig 2;
#X msg 51 266 pd~ stop;
#X obj 139 394 dac~;
#X obj 274 393 dac~;
#X obj 285 28 loadbang;
#X msg 290 66 \; pd dsp 1;
#X msg 479 283 intensity \$1;
#X floatatom 480 257 5 0 0 0 - - - 0;
#X obj 139 84 bng 19 250 50 0 empty empty empty 0 -10 0 12 #fcfcfc #000000 #000000;
#X obj 157 123 t b b b;
#X obj 429 333 pd~ -noutsig 2;
#X obj 477 403 dac~;
#X msg 277 443 offset 4;
#X msg 378 443 offset 8;
#X text 269 486 each core needs to be offset by multiples of the number of voices being used;
#X msg 192 234 pd~ start -nogui memoryMachine_lite_inst.pd;
#X text 531 258 ints \, range 0-number of total voices;
#X connect 0 0 8 0;
#X connect 0 1 3 0;
#X connect 0 2 3 1;
#X connect 1 0 13 0;
#X connect 1 0 8 0;
#X connect 1 1 4 0;
#X connect 1 2 4 1;
#X connect 2 0 0 0;
#X connect 2 0 1 0;
#X connect 5 0 6 0;
#X connect 5 0 10 0;
#X connect 7 0 1 0;
#X connect 7 0 0 0;
#X connect 7 0 11 0;
#X connect 8 0 7 0;
#X connect 9 0 10 0;
#X connect 10 2 16 0;
#X connect 11 0 8 0;
#X connect 11 0 14 0;
#X connect 11 1 12 0;
#X connect 11 2 12 1;
#X connect 13 0 1 0;
#X connect 14 0 11 0;
#X connect 16 0 1 0;
#X connect 16 0 0 0;
#X connect 16 0 11 0;
