#N canvas 355 95 834 645 12;
#X obj 100 321 pd~ -noutsig 2;
#X obj 226 323 pd~ -noutsig 2;
#X obj 220 559 dac~;
#X obj 210 87 loadbang;
#X msg 215 125 \; pd dsp 1;
#X msg 523 184 intensity \$1;
#X floatatom 534 158 5 0 0 0 - - - 0;
#X obj 173 161 bng 19 250 50 0 empty empty empty 0 -10 0 12 #fcfcfc #000000 #000000;
#X obj 429 325 pd~ -noutsig 2;
#X text 191 399 each core needs to be offset by multiples of the number of voices being used;
#X text 575 159 ints \, range 0-number of total voices;
#X obj 534 56 ctlin 55;
#X obj 534 80 / 127;
#X obj 52 472 / 127;
#X obj 53 402 ctlin 56;
#X obj 426 433 notein;
#X obj 418 478 pack 0 0;
#X obj 416 513 route 60 61;
#X floatatom 416 537 5 0 0 0 - - - 0;
#X floatatom 460 539 5 0 0 0 - - - 0;
#X obj 405 569 sel 100;
#X obj 521 568 sel 100;
#X obj 534 128 i;
#X obj 141 376 throw~ audioL;
#X obj 241 377 throw~ audioR;
#X obj 237 354 throw~ audioL;
#X obj 337 355 throw~ audioR;
#X obj 434 375 throw~ audioL;
#X obj 534 376 throw~ audioR;
#X obj 187 518 *~;
#X obj 143 491 sig~;
#X obj 246 520 *~;
#X obj 191 480 catch~ audioL;
#X obj 298 481 catch~ audioR;
#X floatatom 56 437 5 0 0 0 - - - 0;
#X obj 160 219 s toPDs;
#X obj 103 292 r toPDs;
#X obj 234 286 r toPDs;
#X obj 432 286 r toPDs;
#X obj 531 213 s toPDs;
#X msg 62 192 pd~ stop;
#X obj 402 621 s toPDs;
#X msg 402 591 startall \$1;
#X msg 521 603 stopall \$1;
#X msg 174 187 pd~ start -nogui memoryMachine_lite_inst.pd;
#X text 572 102 change max voices here;
#X text 78 30 number of voices per instance is set by the clone object in memoryMachine_lite_inst.pd. this is stupid but vestigial and works so whatever;
#X obj 534 104 * 9;
#X msg 338 323 offset 3;
#X msg 538 325 offset 6;
#X connect 0 0 6 0;
#X connect 0 1 23 0;
#X connect 0 2 24 0;
#X connect 1 0 48 0;
#X connect 1 0 6 0;
#X connect 1 1 25 0;
#X connect 1 2 26 0;
#X connect 3 0 4 0;
#X connect 3 0 7 0;
#X connect 5 0 39 0;
#X connect 6 0 5 0;
#X connect 7 0 44 0;
#X connect 8 0 6 0;
#X connect 8 0 49 0;
#X connect 8 1 27 0;
#X connect 8 2 28 0;
#X connect 11 0 12 0;
#X connect 12 0 47 0;
#X connect 13 0 30 0;
#X connect 14 0 34 0;
#X connect 15 0 16 0;
#X connect 15 1 16 1;
#X connect 16 0 17 0;
#X connect 17 0 18 0;
#X connect 17 1 19 0;
#X connect 18 0 20 0;
#X connect 19 0 21 0;
#X connect 20 0 42 0;
#X connect 21 0 43 0;
#X connect 22 0 6 0;
#X connect 29 0 2 0;
#X connect 30 0 29 1;
#X connect 30 0 31 1;
#X connect 31 0 2 1;
#X connect 32 0 29 0;
#X connect 33 0 31 0;
#X connect 34 0 13 0;
#X connect 36 0 0 0;
#X connect 37 0 1 0;
#X connect 38 0 8 0;
#X connect 40 0 35 0;
#X connect 42 0 41 0;
#X connect 43 0 41 0;
#X connect 44 0 35 0;
#X connect 47 0 22 0;
#X connect 48 0 1 0;
#X connect 49 0 8 0;
