#N canvas 332 487 884 333 12;
#X obj 206 278 *~ 0.3;
#X obj 186 325 dac~;
#X obj 130 185 pd~ -noutsig 2;
#X obj 374 279 *~ 0.3;
#X obj 354 326 dac~;
#X obj 298 186 pd~ -noutsig 2;
#X msg 441 146 pd~ start -nogui rand_osc.pd;
#X msg 32 140 pd~ stop;
#X msg 296 146 process 2;
#X msg 129 147 process 1;
#X obj 172 74 t b b b;
#X obj 172 52 bng 19 250 50 0 empty empty empty 0 -10 0 12 #fcfcfc #000000 #000000;
#X msg 658 259 \; pd dsp 1;
#X obj 653 218 loadbang;
#X obj 171 14 loadbang;
#X connect 0 0 1 0;
#X connect 0 0 1 1;
#X connect 2 1 0 0;
#X connect 3 0 4 0;
#X connect 3 0 4 1;
#X connect 5 1 3 0;
#X connect 6 0 2 0;
#X connect 6 0 5 0;
#X connect 7 0 2 0;
#X connect 7 0 5 0;
#X connect 8 0 5 0;
#X connect 9 0 2 0;
#X connect 10 0 9 0;
#X connect 10 1 8 0;
#X connect 10 2 6 0;
#X connect 11 0 10 0;
#X connect 13 0 12 0;
#X connect 14 0 11 0;
