#N canvas 61 369 450 300 12;
#X obj 722 791 ys.panning;
#X obj 632 937 *~;
#X obj 700 933 *~;
#X obj 726 765 hsl 128 15 0 1 0 0 empty empty empty -2 -8 0 10 #fcfcfc #000000 #000000 0 1;
#X obj 732 709 random 100;
#X obj 732 733 / 100;
#X obj 633 762 / 100;
#X obj 631 791 * 1.57079;
#X floatatom 631 845 5 0 0 0 - - - 0;
#X obj 631 817 cos;
#X obj 608 898 *~;
#X obj 629 725 random 50;
#X text 648 685 volume/pitch random;
#X obj 892 554 r stop_all;
#X obj 802 1008 *~;
#X obj 905 1004 *~;
#X obj 925 849 change;
#X msg 918 931 \$1 100;
#X obj 918 955 line~;
#X obj 923 899 tgl 15 0 empty empty playing 17 7 0 10 #fcfcfc #000000 #000000 0 1;
#X obj 927 818 >=;
#X obj 976 768 i \$1;
#X obj 976 735 loadbang;
#X obj 981 799 + 0;
#X msg 933 1044 \$1 100;
#X obj 933 1068 line~;
#X obj 827 1168 *~;
#X obj 951 1169 *~;
#X obj 344 264 text get memorysounds;
#X floatatom 347 239 5 0 0 0 - - - 0;
#X obj 340 213 random;
#X obj 336 132 bng 19 250 50 0 empty empty empty 0 -10 0 12 #fcfcfc #000000 #000000;
#X obj 384 668 -;
#X floatatom 384 692 9 0 0 0 - - - 0;
#X obj 345 742 random;
#X msg 892 578 stop;
#X obj 877 724 r intensity;
#X obj 957 996 r on_off;
#X text 470 487 offset;
#X text 394 743 playlength;
#X floatatom 345 766 18 0 0 0 - - - 0;
#X obj 568 1025 line~;
#X obj 345 815 / 44.1;
#X floatatom 622 1011 5 0 0 0 - - - 0;
#X obj 819 1067 *~;
#X obj 872 1067 *~;
#X text 507 1098 sine fading (is this ok?);
#X obj 352 430 spigot;
#X obj 291 345 file splitname;
#X obj 291 369 unpack s s;
#X obj 475 315 file size;
#X floatatom 475 339 5 0 0 0 - - - 0;
#X floatatom 475 386 7 0 0 0 - - - 0;
#X obj 475 362 / 88200;
#X obj 475 409 * 44100;
#X floatatom 475 433 14 0 0 0 - - - 0;
#X obj 726 633 readsf~;
#X obj 341 299 t s s;
#X obj 750 543 pack s f;
#X msg 753 570 open sounds/\$1 \$2;
#X obj 418 487 random;
#X obj 441 458 t b f;
#X msg 676 589 start;
#X obj 696 541 t b b;
#X obj 987 913 s \$0-playthis;
#X obj 368 398 r \$0-playthis;
#X obj 348 1020 s \$0-thisend;
#X obj 582 668 r \$0-makevolumes;
#X obj 506 456 s \$0-samplelength;
#X obj 242 520 r \$0-samplelength;
#X floatatom 426 515 18 0 0 0 - - - 0;
#X obj 383 624 t b b f;
#X floatatom 345 839 10 0 0 0 - - - 0;
#X obj 592 546 r \$0-playbang;
#X obj 361 993 bng 19 250 50 0 empty empty empty 0 -10 0 12 #fcfcfc #000000 #000000;
#X obj 362 940 delay;
#X msg 361 902 \$1;
#X obj 335 715 t b f b;
#X obj 400 186 r \$0-numsounds;
#X obj 889 1207 dac~;
#X obj 972 1023 tgl 19 0 empty empty empty 0 -10 0 12 #fcfcfc #000000 #000000 0 1;
#X obj 772 655 bng 19 250 50 0 empty empty empty 0 -10 0 12 #fcfcfc #000000 #000000;
#X msg 449 954 1 100;
#X obj 261 864 delay;
#X obj 261 888 bng 19 250 50 0 empty empty empty 0 -10 0 12 #fcfcfc #000000 #000000;
#X obj 265 819 - 100;
#X msg 517 956 0 100;
#X obj 330 103 inlet;
#X obj 280 958 outlet;
#X obj 611 232 s \$0-makevolumes;
#X obj 211 218 send \$0-playbang;
#X obj 338 171 t b b b;
#N canvas 150 175 953 628 loadsounds 0;
#X floatatom 451 179 5 0 0 0 - - - 0;
#X obj 603 118 random;
#X obj 637 94 r numsounds;
#X obj 661 125 r select_sound;
#X obj 601 70 r randomsound;
#X obj 617 199 s selected_sound;
#X obj 147 465 file glob;
#X msg 147 490 \$2 \$1;
#X obj 147 515 route 0 1;
#X obj 170 543 symbol;
#X obj 194 490 bng 15 250 50 0 empty empty empty 17 7 0 10 #fcfcfc #000000 #000000;
#X obj 300 617 list;
#X obj 358 463 file glob;
#X msg 358 487 \$2 \$1;
#X obj 358 512 route 0 1;
#X obj 381 540 symbol;
#X obj 405 487 bng 15 250 50 0 empty empty empty 17 7 0 10 #fcfcfc #000000 #000000;
#X obj 273 588 t b a;
#X obj 274 672 del 200;
#X msg 342 362 -1;
#X floatatom 271 727 5 0 0 0 - - - 0;
#X obj 210 94 r reloadsounds;
#X obj 436 503 file glob;
#X msg 436 527 \$2 \$1;
#X obj 436 552 route 0 1;
#X obj 459 580 symbol;
#X obj 483 527 bng 15 250 50 0 empty empty empty 17 7 0 10 #fcfcfc #000000 #000000;
#X obj 271 751 s \$0-numsounds;
#X obj 252 252 file patchpath;
#X obj 218 346 t s b;
#X obj 147 383 t s s s;
#X msg 32 439 symbol \$1/sounds/*.wav \, symbol \$1/sounds/*/;
#X msg 367 432 symbol \$1/sounds/*.aif \, symbol \$1/sounds/*/;
#X msg 445 472 symbol \$1/sounds/*.aiff \, symbol \$1/sounds/*/;
#X obj 254 212 bng 19 250 50 0 empty empty empty 0 -10 0 12 #fcfcfc #000000 #000000;
#X obj 255 177 loadbang;
#X obj 508 249 file splitname;
#X obj 508 273 unpack s s;
#X obj 202 145 t b b;
#X obj 51 28 text define \$0-soundlist;
#X obj 456 202 text get \$0-soundlist;
#X obj 603 171 text get \$0-soundlist;
#X obj 341 390 text delete \$0-soundlist;
#X obj 299 641 text insert \$0-soundlist 1e+07;
#X obj 271 705 text size \$0-soundlist;
#X connect 0 0 40 0;
#X connect 1 0 41 0;
#X connect 2 0 1 1;
#X connect 3 0 41 0;
#X connect 4 0 1 0;
#X connect 6 0 7 0;
#X connect 6 1 10 0;
#X connect 7 0 8 0;
#X connect 8 0 17 0;
#X connect 8 1 9 0;
#X connect 9 0 31 0;
#X connect 11 0 43 0;
#X connect 12 0 13 0;
#X connect 12 1 16 0;
#X connect 13 0 14 0;
#X connect 14 0 17 0;
#X connect 14 1 15 0;
#X connect 15 0 32 0;
#X connect 17 0 18 0;
#X connect 17 1 11 0;
#X connect 18 0 44 0;
#X connect 19 0 42 0;
#X connect 20 0 27 0;
#X connect 21 0 38 0;
#X connect 22 0 23 0;
#X connect 22 1 26 0;
#X connect 23 0 24 0;
#X connect 24 0 17 0;
#X connect 24 1 25 0;
#X connect 25 0 33 0;
#X connect 28 0 29 0;
#X connect 29 0 30 0;
#X connect 29 1 19 0;
#X connect 30 0 31 0;
#X connect 30 1 32 0;
#X connect 30 2 33 0;
#X connect 31 0 6 0;
#X connect 32 0 12 0;
#X connect 33 0 22 0;
#X connect 34 0 28 0;
#X connect 35 0 34 0;
#X connect 36 0 37 0;
#X connect 38 1 34 0;
#X connect 40 0 36 0;
#X connect 41 0 5 0;
#X connect 44 0 20 0;
#X restore 199 133 pd loadsounds;
#X connect 0 0 1 1;
#X connect 0 1 2 1;
#X connect 1 0 14 0;
#X connect 2 0 15 0;
#X connect 3 0 0 0;
#X connect 4 0 5 0;
#X connect 5 0 3 0;
#X connect 6 0 7 0;
#X connect 7 0 9 0;
#X connect 8 0 10 1;
#X connect 9 0 8 0;
#X connect 10 0 1 0;
#X connect 10 0 2 0;
#X connect 11 0 6 0;
#X connect 13 0 35 0;
#X connect 14 0 44 0;
#X connect 15 0 45 0;
#X connect 16 0 19 0;
#X connect 17 0 18 0;
#X connect 18 0 15 1;
#X connect 18 0 14 1;
#X connect 19 0 17 0;
#X connect 19 0 64 0;
#X connect 20 0 16 0;
#X connect 21 0 23 0;
#X connect 22 0 21 0;
#X connect 23 0 20 1;
#X connect 24 0 25 0;
#X connect 25 0 27 1;
#X connect 25 0 26 1;
#X connect 26 0 79 0;
#X connect 27 0 79 1;
#X connect 28 0 57 0;
#X connect 29 0 28 0;
#X connect 30 0 29 0;
#X connect 31 0 91 0;
#X connect 32 0 33 0;
#X connect 33 0 77 0;
#X connect 34 0 40 0;
#X connect 35 0 56 0;
#X connect 36 0 20 0;
#X connect 37 0 24 0;
#X connect 40 0 42 0;
#X connect 41 0 44 1;
#X connect 41 0 45 1;
#X connect 42 0 72 0;
#X connect 44 0 26 0;
#X connect 45 0 27 0;
#X connect 48 0 49 0;
#X connect 49 1 47 0;
#X connect 49 1 58 0;
#X connect 50 0 51 0;
#X connect 51 0 53 0;
#X connect 52 0 54 0;
#X connect 53 0 52 0;
#X connect 54 0 55 0;
#X connect 55 0 61 0;
#X connect 55 0 68 0;
#X connect 56 0 10 0;
#X connect 56 1 81 0;
#X connect 57 0 48 0;
#X connect 57 1 50 0;
#X connect 58 0 59 0;
#X connect 59 0 56 0;
#X connect 60 0 70 0;
#X connect 61 0 60 0;
#X connect 61 1 60 1;
#X connect 62 0 56 0;
#X connect 65 0 47 1;
#X connect 67 0 11 0;
#X connect 67 0 4 0;
#X connect 69 0 32 0;
#X connect 70 0 58 1;
#X connect 70 0 71 0;
#X connect 71 1 32 0;
#X connect 71 2 32 1;
#X connect 72 0 76 0;
#X connect 72 0 85 0;
#X connect 73 0 62 0;
#X connect 74 0 66 0;
#X connect 75 0 74 0;
#X connect 76 0 75 0;
#X connect 77 0 34 0;
#X connect 77 0 82 0;
#X connect 77 1 34 1;
#X connect 78 0 30 1;
#X connect 80 0 24 0;
#X connect 82 0 41 0;
#X connect 83 0 84 0;
#X connect 84 0 86 0;
#X connect 84 0 88 0;
#X connect 85 0 83 0;
#X connect 86 0 41 0;
#X connect 87 0 31 0;
#X connect 91 0 90 0;
#X connect 91 1 30 0;
#X connect 91 2 89 0;
