#N canvas 0 25 648 420 12;
#X obj 133 233 bng 15 250 50 0 empty empty empty 17 7 0 10 -262144
-1 -1;
#X obj 131 83 random 10000;
#X obj 131 107 + 20000;
#X obj 124 149 metro;
#X obj 131 55 bng 15 250 50 0 empty empty empty 17 7 0 10 -262144 -1
-1;
#X floatatom 180 145 5 0 0 0 - - -;
#X obj 128 199 bng 15 250 50 0 empty empty empty 17 7 0 10 -262144
-1 -1;
#X obj 86 109 tgl 15 0 empty empty empty 17 7 0 10 -262144 -1 -1 1
1;
#X obj 86 80 inlet;
#X obj 167 377 outlet;
#X obj 168 278 random 2;
#X obj 172 314 moses 1;
#X obj 176 344 t b;
#X text 249 278 50% chance of a bang being routed;
#X connect 0 0 10 0;
#X connect 1 0 2 0;
#X connect 2 0 5 0;
#X connect 3 0 6 0;
#X connect 4 0 1 0;
#X connect 5 0 3 1;
#X connect 6 0 4 0;
#X connect 6 0 0 0;
#X connect 7 0 3 0;
#X connect 8 0 7 0;
#X connect 10 0 11 0;
#X connect 11 0 12 0;
#X connect 12 0 9 0;
