#N canvas -812 187 526 318 12;
#X obj 64 83 random_sinearray \$1;
#X obj 144 186 * \$2;
#X obj 97 226 s volume_\$1_rcv;
#X obj 279 136 *~;
#X obj 364 134 *~;
#X obj 250 181 throw~ outputL;
#X obj 358 178 throw~ outputR;
#X obj 289 40 r volume_\$1;
#X floatatom 145 150 5 0 0 0 - - - 0;
#X floatatom 403 50 5 0 0 0 - - - 0;
#X obj 278 93 catch~ outputL-\$1;
#X obj 344 109 catch~ outputR-\$1;
#X connect 0 0 8 0;
#X connect 1 0 2 0;
#X connect 3 0 5 0;
#X connect 4 0 6 0;
#X connect 7 0 3 1;
#X connect 7 0 4 1;
#X connect 7 0 9 0;
#X connect 8 0 1 0;
#X connect 10 0 3 0;
#X connect 11 0 4 0;
