#N canvas 445 25 907 847 12;
#X obj 574 850 ys.panning;
#X obj 484 996 *~;
#X obj 552 992 *~;
#X obj 578 824 hsl 128 15 0 1 0 0 empty empty empty -2 -8 0 10 #fcfcfc #000000 #000000 0 1;
#X obj 584 768 random 100;
#X obj 584 792 / 100;
#X obj 485 821 / 100;
#X obj 483 850 * 1.57079;
#X floatatom 483 904 5 0 0 0 - - - 0;
#X obj 483 876 cos;
#X obj 460 957 *~;
#X obj 481 784 random 50;
#X text 500 744 volume/pitch random;
#X obj 744 613 r stop_all;
#X obj 654 1067 *~;
#X obj 757 1063 *~;
#X obj 777 908 change;
#X msg 770 990 \$1 100;
#X obj 770 1014 line~;
#X obj 775 958 tgl 15 0 empty empty playing 17 7 0 10 #fcfcfc #000000 #000000 0 1;
#X obj 779 877 >=;
#X obj 828 827 i \$1;
#X obj 828 794 loadbang;
#X obj 833 858 + 0;
#X msg 785 1103 \$1 100;
#X obj 785 1127 line~;
#X obj 679 1227 *~;
#X obj 803 1228 *~;
#X obj 196 323 text get memorysounds;
#X floatatom 199 298 5 0 0 0 - - - 0;
#X obj 192 272 random;
#X obj 193 223 bng 19 250 50 0 empty empty empty 0 -10 0 12 #fcfcfc #000000 #000000;
#X obj 236 727 -;
#X floatatom 236 751 9 0 0 0 - - - 0;
#X obj 129 129 bng 19 250 50 0 empty empty empty 0 -10 0 12 #fcfcfc #000000 #000000;
#X obj 197 801 random;
#X obj 222 218 r \$2-numsounds;
#X obj 398 330 bng 19 250 50 0 empty empty empty 0 -10 0 12 #fcfcfc #000000 #000000;
#X msg 744 637 stop;
#X obj 255 119 bng 19 250 50 0 reloadsounds empty reloadsounds 0 -10 0 12 #fcfcfc #000000 #000000;
#X obj 729 783 r intensity;
#X obj 130 89 loadbang;
#X obj 674 1264 throw~ outputL;
#X obj 801 1269 throw~ outputR;
#X obj 809 1055 r on_off;
#X text 322 546 offset;
#X text 246 802 playlength;
#X floatatom 197 825 18 0 0 0 - - - 0;
#X obj 403 361 delay;
#X obj 427 275 + 500;
#X obj 420 1084 line~;
#X obj 197 874 / 44.1;
#X obj 493 1120 tabread~ array-sine;
#X floatatom 491 1092 5 0 0 0 - - - 0;
#X msg 223 1002 1025 \$1;
#X msg 309 1000 0;
#X obj 671 1126 *~;
#X obj 724 1126 *~;
#X text 359 1157 sine fading (is this ok?);
#X obj 204 489 spigot;
#X obj 143 404 file splitname;
#X obj 143 428 unpack s s;
#X obj 327 374 file size;
#X floatatom 327 398 5 0 0 0 - - - 0;
#X floatatom 327 445 7 0 0 0 - - - 0;
#X obj 327 421 / 88200;
#X text 571 278 convert everything to mono for better offset;
#X obj 327 468 * 44100;
#X floatatom 327 492 14 0 0 0 - - - 0;
#X obj 578 692 readsf~;
#X obj 598 563 pack;
#X obj 193 358 t s s;
#X obj 602 602 pack s f;
#X obj 690 677 print;
#X msg 605 629 open sounds/\$1 \$2;
#X obj 270 546 random;
#X obj 293 517 t b f;
#X obj 619 722 dac~;
#X msg 528 648 start;
#X obj 548 600 t b b;
#X obj 839 972 s \$0-playthis;
#X obj 220 457 r \$0-playthis;
#X obj 111 1114 s \$0-thisend;
#X obj 337 262 r \$0-thisend;
#X obj 59 226 s \$0-makevolumes;
#X obj 434 727 r \$0-makevolumes;
#X obj 358 515 s \$0-samplelength;
#X obj 192 611 r \$0-samplelength;
#X obj 129 157 t b b b b b;
#X floatatom 270 570 9 0 0 0 - - - 0;
#X text 303 753 post-offset length;
#X obj 235 683 t b b f;
#X floatatom 197 898 10 0 0 0 - - - 0;
#X text 277 896 playlength ms;
#X obj 47 315 send \$0-playbang;
#X obj 444 605 r \$0-playbang;
#X obj 304 1110 snapshot~;
#X obj 285 1061 tgl 19 0 empty empty empty 0 -10 0 12 #fcfcfc #000000 #000000 0 1;
#X floatatom 304 1134 10 0 0 0 - - - 0;
#X obj 124 1087 bng 19 250 50 0 empty empty empty 0 -10 0 12 #fcfcfc #000000 #000000;
#X obj 125 1034 delay;
#X msg 124 996 \$1;
#X obj 307 935 r \$0-makevolumes;
#X obj 285 1085 metro 5;
#X obj 214 955 i;
#X obj 187 774 t b f b;
#X obj 427 251 random 2500;
#X connect 0 0 1 1;
#X connect 0 1 2 1;
#X connect 1 0 14 0;
#X connect 2 0 15 0;
#X connect 3 0 0 0;
#X connect 4 0 5 0;
#X connect 5 0 3 0;
#X connect 6 0 7 0;
#X connect 7 0 9 0;
#X connect 8 0 10 1;
#X connect 9 0 8 0;
#X connect 10 0 1 0;
#X connect 10 0 2 0;
#X connect 11 0 6 0;
#X connect 13 0 38 0;
#X connect 14 0 56 0;
#X connect 15 0 57 0;
#X connect 16 0 19 0;
#X connect 17 0 18 0;
#X connect 18 0 15 1;
#X connect 18 0 14 1;
#X connect 19 0 17 0;
#X connect 19 0 80 0;
#X connect 20 0 16 0;
#X connect 21 0 23 0;
#X connect 22 0 21 0;
#X connect 23 0 20 1;
#X connect 24 0 25 0;
#X connect 25 0 27 1;
#X connect 25 0 26 1;
#X connect 26 0 42 0;
#X connect 27 0 43 0;
#X connect 28 0 71 0;
#X connect 29 0 28 0;
#X connect 30 0 29 0;
#X connect 31 0 30 0;
#X connect 32 0 33 0;
#X connect 33 0 105 0;
#X connect 34 0 88 0;
#X connect 35 0 47 0;
#X connect 36 0 30 1;
#X connect 37 0 48 0;
#X connect 38 0 69 0;
#X connect 40 0 20 0;
#X connect 41 0 34 0;
#X connect 44 0 24 0;
#X connect 47 0 51 0;
#X connect 48 0 34 0;
#X connect 49 0 48 1;
#X connect 50 0 52 0;
#X connect 50 0 96 0;
#X connect 51 0 92 0;
#X connect 52 0 56 1;
#X connect 52 0 57 1;
#X connect 53 0 52 0;
#X connect 54 0 50 0;
#X connect 55 0 50 0;
#X connect 56 0 26 0;
#X connect 57 0 27 0;
#X connect 60 0 61 0;
#X connect 61 1 59 0;
#X connect 61 1 72 0;
#X connect 62 0 63 0;
#X connect 63 0 65 0;
#X connect 64 0 67 0;
#X connect 65 0 64 0;
#X connect 67 0 68 0;
#X connect 68 0 76 0;
#X connect 68 0 86 0;
#X connect 69 0 10 0;
#X connect 71 0 60 0;
#X connect 71 1 62 0;
#X connect 72 0 74 0;
#X connect 74 0 69 0;
#X connect 75 0 89 0;
#X connect 76 0 75 0;
#X connect 76 1 75 1;
#X connect 78 0 69 0;
#X connect 81 0 59 1;
#X connect 83 0 37 0;
#X connect 85 0 11 0;
#X connect 85 0 4 0;
#X connect 87 0 32 0;
#X connect 88 0 106 0;
#X connect 88 2 94 0;
#X connect 88 3 84 0;
#X connect 88 4 31 0;
#X connect 89 0 72 1;
#X connect 89 0 91 0;
#X connect 91 1 32 0;
#X connect 91 2 32 1;
#X connect 92 0 101 0;
#X connect 92 0 104 0;
#X connect 95 0 78 0;
#X connect 96 0 98 0;
#X connect 97 0 103 0;
#X connect 99 0 82 0;
#X connect 100 0 99 0;
#X connect 101 0 100 0;
#X connect 103 0 96 0;
#X connect 104 0 54 0;
#X connect 105 0 35 0;
#X connect 105 1 35 1;
#X connect 105 2 55 0;
#X connect 106 0 49 0;
