#N canvas 408 25 907 847 12;
#X obj 567 648 ys.panning;
#X obj 477 794 *~;
#X obj 545 790 *~;
#X obj 571 622 hsl 128 15 0 1 0 0 empty empty empty -2 -8 0 10 #fcfcfc #000000 #000000 0 1;
#X obj 577 566 random 100;
#X obj 577 590 / 100;
#X obj 478 619 / 100;
#X obj 476 648 * 1.57079;
#X floatatom 476 702 5 0 0 0 - - - 0;
#X obj 476 674 cos;
#X obj 453 755 *~;
#X obj 474 582 random 50;
#X text 493 542 volume/pitch random;
#X obj 338 600 r stop_all;
#X obj 647 865 *~;
#X obj 750 861 *~;
#X obj 770 706 change;
#X msg 763 788 \$1 100;
#X obj 763 812 line~;
#X obj 768 756 tgl 15 0 empty empty playing 17 7 0 10 #fcfcfc #000000 #000000 0 1;
#X obj 772 675 >=;
#X obj 821 625 i \$1;
#X obj 821 592 loadbang;
#X obj 826 656 + 0;
#X msg 778 901 \$1 100;
#X obj 778 925 line~;
#X obj 672 1025 *~;
#X obj 796 1026 *~;
#X obj 174 416 soundfiler;
#X floatatom 174 440 9 0 0 0 - - - 0;
#X obj 134 477 random;
#X floatatom 134 501 7 0 0 0 - - - 0;
#X obj 150 252 text get memorysounds;
#X floatatom 153 227 5 0 0 0 - - - 0;
#X obj 146 201 random;
#X obj 147 152 bng 19 250 50 0 empty empty empty 0 -10 0 12 #fcfcfc #000000 #000000;
#X obj 229 525 -;
#X obj 217 483 t b f;
#X floatatom 229 549 9 0 0 0 - - - 0;
#X obj 87 128 t b b b b;
#X obj 86 102 bng 19 250 50 0 empty empty empty 0 -10 0 12 #fcfcfc #000000 #000000;
#X obj 153 648 pack 0 0;
#X obj 190 599 random;
#X obj 15 31 array define \$0-onememory;
#X obj 259 699 tabplay~ \$0-onememory;
#X msg 173 387 read -resize \$1 \$2-onememory;
#X obj 159 278 t s b;
#X obj 203 308 i \$0;
#X obj 165 327 pack s f;
#X obj 176 147 r \$2-numsounds;
#X obj 417 698 bng 19 250 50 0 empty empty empty 0 -10 0 12 #fcfcfc #000000 #000000;
#X msg 338 624 stop;
#X obj 209 48 bng 19 250 50 0 reloadsounds empty reloadsounds 0 -10 0 12 #fcfcfc #000000 #000000;
#X obj 722 581 r intensity;
#X obj 87 62 loadbang;
#X obj 667 1062 throw~ outputL;
#X obj 794 1067 throw~ outputR;
#X obj 802 853 r on_off;
#X text 247 438 overall length;
#X text 70 501 offset;
#X text 239 600 playlength;
#X floatatom 190 623 11 0 0 0 - - - 0;
#X obj 454 397 delay;
#X obj 490 333 random 1500;
#X obj 490 357 + 500;
#X obj 413 882 line~;
#X obj 281 500 unpack 0 0 0;
#X floatatom 281 524 7 0 0 0 - - - 0;
#X msg 231 669 \$1 \$2;
#X msg 334 664 0 44100;
#X obj 135 617 bng 19 250 50 0 empty empty empty 0 -10 0 12 #fcfcfc #000000 #000000;
#X obj 143 561 t f b;
#X obj 165 736 / 44.1;
#X obj 486 918 tabread~ array-sine;
#X floatatom 484 890 5 0 0 0 - - - 0;
#X msg 148 808 1025 \$1;
#X msg 225 807 0;
#X obj 664 924 *~;
#X obj 717 924 *~;
#X text 352 955 sine fading (is this ok?);
#X obj 399 255 print randomindex;
#X obj 167 359 spigot;
#X connect 0 0 1 1;
#X connect 0 1 2 1;
#X connect 1 0 14 0;
#X connect 2 0 15 0;
#X connect 3 0 0 0;
#X connect 4 0 5 0;
#X connect 5 0 3 0;
#X connect 6 0 7 0;
#X connect 7 0 9 0;
#X connect 8 0 10 1;
#X connect 9 0 8 0;
#X connect 10 0 1 0;
#X connect 10 0 2 0;
#X connect 11 0 6 0;
#X connect 13 0 51 0;
#X connect 14 0 77 0;
#X connect 15 0 78 0;
#X connect 16 0 19 0;
#X connect 17 0 18 0;
#X connect 18 0 15 1;
#X connect 18 0 14 1;
#X connect 19 0 17 0;
#X connect 19 0 81 1;
#X connect 20 0 16 0;
#X connect 21 0 23 0;
#X connect 22 0 21 0;
#X connect 23 0 20 1;
#X connect 24 0 25 0;
#X connect 25 0 27 1;
#X connect 25 0 26 1;
#X connect 26 0 55 0;
#X connect 27 0 56 0;
#X connect 28 0 29 0;
#X connect 28 1 66 0;
#X connect 29 0 30 1;
#X connect 29 0 36 0;
#X connect 30 0 31 0;
#X connect 31 0 37 0;
#X connect 31 0 71 0;
#X connect 32 0 46 0;
#X connect 33 0 32 0;
#X connect 34 0 33 0;
#X connect 35 0 34 0;
#X connect 36 0 38 0;
#X connect 37 0 36 0;
#X connect 37 1 36 1;
#X connect 38 0 42 1;
#X connect 39 0 63 0;
#X connect 39 1 11 0;
#X connect 39 1 4 0;
#X connect 39 2 30 0;
#X connect 39 3 35 0;
#X connect 40 0 39 0;
#X connect 41 0 68 0;
#X connect 42 0 61 0;
#X connect 44 0 10 0;
#X connect 44 1 50 0;
#X connect 44 1 76 0;
#X connect 45 0 28 0;
#X connect 46 0 48 0;
#X connect 46 1 47 0;
#X connect 47 0 48 1;
#X connect 48 0 81 0;
#X connect 49 0 34 1;
#X connect 50 0 62 0;
#X connect 51 0 44 0;
#X connect 53 0 20 0;
#X connect 54 0 40 0;
#X connect 57 0 24 0;
#X connect 61 0 41 1;
#X connect 61 0 72 0;
#X connect 62 0 40 0;
#X connect 63 0 64 0;
#X connect 64 0 62 1;
#X connect 65 0 73 0;
#X connect 66 0 67 0;
#X connect 68 0 44 0;
#X connect 69 0 44 0;
#X connect 70 0 41 0;
#X connect 71 0 41 0;
#X connect 71 1 42 0;
#X connect 72 0 75 0;
#X connect 73 0 77 1;
#X connect 73 0 78 1;
#X connect 74 0 73 0;
#X connect 75 0 65 0;
#X connect 76 0 65 0;
#X connect 77 0 26 0;
#X connect 78 0 27 0;
#X connect 81 0 45 0;
