#N canvas 0 92 1169 539 12;
#X obj 940 288 abs;
#X floatatom 937 317 5 0 0 0 - - - 0;
#X obj 242 671 i \$0;
#X obj 294 668 random 100;
#X obj 376 670 random 100;
#X obj 466 669 random 100;
#X obj 556 667 random 100;
#X obj 294 692 / 100;
#X obj 376 694 / 100;
#X obj 466 693 / 100;
#X obj 556 691 / 100;
#X obj 291 740 pack 0 0 0 0 0;
#X obj 217 623 t b b b b b b, f 52;
#X obj 206 704 i \$0;
#X msg 230 823 \; array-\$1 normalize;
#X obj 942 155 inlet;
#X obj 941 205 * 2051;
#X obj 941 354 outlet;
#X obj 623 431 outlet;
#X floatatom 999 169 5 0 0 0 - - - 0;
#X obj 745 275 metro 5;
#X msg 277 785 \; array-\$1 sinesum 2051 \$2 \$3;
#X obj 330 216 hsl 195 15 0 1 0 0 empty empty empty -2 -8 0 10 #fcfcfc #000000 #000000 0 1;
#X obj 469 144 snapshot~;
#X obj 509 98 metro 5;
#X obj 514 56 loadbang;
#X obj 641 176 phasor~;
#X obj 607 9 loadbang;
#X obj 607 33 random 100;
#X obj 815 8 loadbang;
#X obj 624 66 / 100;
#X obj 656 105 * 1;
#X obj 700 10 r master_clock;
#X obj 697 42 t b f;
#X obj 601 318 clip~ 0 1;
#X floatatom 606 375 5 0 0 0 - - - 0;
#X obj 601 351 snapshot~;
#X obj 580 245 *~ 2051;
#X obj 578 209 *~ 0.8;
#X obj 807 69 / 100;
#X obj 747 232 tgl 15 0 empty auto_fade auto_fade 17 7 0 10 #fcfcfc #000000 #000000 0 1;
#X floatatom 796 128 5 0 0 0 - - - 0;
#X obj 585 287 tabread~ array-sine;
#X obj 939 264 tabread array-sine;
#X floatatom 656 129 5 0 0 0 - - - 0;
#X floatatom 862 63 5 0 0 0 - - - 0;
#X obj 807 93 + 0;
#X obj 807 40 random 100;
#X connect 0 0 1 0;
#X connect 1 0 17 0;
#X connect 2 0 11 0;
#X connect 3 0 7 0;
#X connect 4 0 8 0;
#X connect 5 0 9 0;
#X connect 6 0 10 0;
#X connect 7 0 11 1;
#X connect 8 0 11 2;
#X connect 11 0 21 0;
#X connect 12 0 13 0;
#X connect 12 1 2 0;
#X connect 12 2 3 0;
#X connect 12 3 4 0;
#X connect 12 4 5 0;
#X connect 12 5 6 0;
#X connect 13 0 14 0;
#X connect 15 0 16 0;
#X connect 16 0 43 0;
#X connect 19 0 16 0;
#X connect 20 0 36 0;
#X connect 23 0 22 0;
#X connect 24 0 23 0;
#X connect 25 0 24 0;
#X connect 26 0 23 0;
#X connect 26 0 38 0;
#X connect 27 0 28 0;
#X connect 28 0 30 0;
#X connect 29 0 47 0;
#X connect 30 0 31 0;
#X connect 31 0 44 0;
#X connect 32 0 33 0;
#X connect 33 0 31 0;
#X connect 33 1 31 1;
#X connect 34 0 36 0;
#X connect 35 0 18 0;
#X connect 36 0 35 0;
#X connect 37 0 42 0;
#X connect 38 0 37 0;
#X connect 39 0 46 0;
#X connect 40 0 20 0;
#X connect 41 0 26 1;
#X connect 42 0 34 0;
#X connect 43 0 0 0;
#X connect 44 0 26 0;
#X connect 46 0 41 0;
#X connect 47 0 39 0;
#X connect 47 0 45 0;
