#N canvas 139 117 966 692 12;
#X obj 101 173 until;
#X msg 101 197 1;
#X obj 111 235 +;
#X floatatom 111 259 5 0 0 0 - - - 0;
#X msg 149 232 0;
#X obj 111 282 t b f;
#X floatatom 146 309 5 0 0 0 - - - 0;
#X obj 126 141 t f b f;
#X obj 124 504 vurnilla, f 12;
#X obj 153 75 t f f;
#X obj 155 47 inlet;
#X obj 125 541 tabwrite \$1-sample_selector;
#X obj 122 575 array define \$1-sample_selector;
#X obj 186 105 array size \$1-sample_selector;
#X obj 440 91 inlet;
#X text 230 355 system for making a shuffled array of values matching the number of samples in the selected sample folder;
#X msg 158 477 seed \$1;
#X floatatom 473 466 5 0 0 0 - - - 0;
#X obj 483 522 tabread \$1-sample_selector;
#X floatatom 483 546 5 0 0 0 - - - 0;
#X obj 321 425 t b;
#X obj 330 472 outlet;
#X connect 0 0 1 0;
#X connect 1 0 2 0;
#X connect 2 0 3 0;
#X connect 3 0 2 1;
#X connect 3 0 5 0;
#X connect 4 0 3 0;
#X connect 5 0 8 0;
#X connect 5 1 6 0;
#X connect 6 0 11 1;
#X connect 7 0 0 0;
#X connect 7 1 4 0;
#X connect 7 2 8 1;
#X connect 8 0 11 0;
#X connect 9 0 7 0;
#X connect 9 1 13 0;
#X connect 10 0 9 0;
#X connect 14 0 16 0;
#X connect 16 0 8 0;
#X connect 16 0 20 0;
#X connect 17 0 18 0;
#X connect 18 0 19 0;
#X connect 20 0 21 0;
