#N canvas 361 36 949 777 12;
#X obj 47 72 ys.soundLoader;
#X msg 129 315 stop;
#X obj 765 427 s \$0-channels;
#X obj 553 310 soundfiler;
#X msg 549 277 read \$1;
#X floatatom 559 354 12 0 0 0 - - - 0;
#X obj 653 354 unpack 0 0 0 0 s, f 39;
#X floatatom 634 385 11 0 0 0 - - - 0;
#X floatatom 720 386 5 0 0 0 - - - 0;
#X floatatom 781 386 5 0 0 0 - - - 0;
#X floatatom 848 394 5 0 0 0 - - - 0;
#X obj 568 407 /;
#X floatatom 568 431 10 0 0 0 - - - 0;
#X obj 152 720 *~;
#X obj 201 612 r \$0-channels;
#X obj 201 636 sel 1 2;
#X msg 197 679 1;
#X msg 232 679 0;
#X obj 128 443 readsf~ 2;
#N canvas 179 204 450 300 alternative_info_method 0;
#X obj 499 432 file handle;
#X obj 472 385 t b a;
#X obj 499 460 list split 4;
#X obj 364 990 print RIFF;
#X obj 533 490 list split 4;
#X obj 398 955 print SIZE 8-bytes in bytes (32-bit integer);
#X obj 567 520 list split 4;
#X obj 432 918 print TYPE HEADER;
#X obj 601 550 list split 4;
#X obj 466 881 print Format chunk marker. Includes trailing null;
#X obj 635 580 list split 4;
#X obj 500 847 print Format chunk marker. Includes trailing null;
#X obj 669 610 list split 2;
#X obj 534 814 print Type of format (1 is PCM) - 2 byte integer;
#X obj 703 640 list split 2;
#X obj 703 740 print Number of Channels - 2 byte integer;
#X obj 737 670 list split 4;
#X obj 737 710 print Sample Rate - 32 byte integer;
#X msg 472 414 28;
#X msg 565 390 close;
#X msg 478 325 open \$1;
#X obj 480 354 t a b;
#X text 428 848 bit rate;
#X text 606 148 68 172 0 0 -- 44.1;
#X text 610 187 34 86 0 0 -- 22k;
#X text 621 229 40 seems to be 24 bit?;
#X text 625 253 16 seems to be 16 bit;
#X text 598 119 0 119 1 0 -- 96;
#X text 593 97 0 0 0 0 -- 192?!;
#X text 641 301 192 files seem to cause issues;
#X connect 0 0 2 0;
#X connect 1 0 18 0;
#X connect 1 1 0 0;
#X connect 2 0 3 0;
#X connect 2 1 4 0;
#X connect 4 0 5 0;
#X connect 4 1 6 0;
#X connect 6 0 7 0;
#X connect 6 1 8 0;
#X connect 8 0 9 0;
#X connect 8 1 10 0;
#X connect 10 0 11 0;
#X connect 10 1 12 0;
#X connect 12 0 13 0;
#X connect 12 1 14 0;
#X connect 14 0 15 0;
#X connect 14 1 16 0;
#X connect 16 0 17 0;
#X connect 18 0 0 0;
#X connect 19 0 0 0;
#X connect 20 0 21 0;
#X connect 21 0 1 0;
#X connect 21 1 19 0;
#X restore 703 451 pd alternative_info_method;
#X obj 575 466 * 1000;
#X obj 575 490 s \$0-lengthms;
#X obj 655 693 s \$0-playlength;
#X obj 576 616 random 8000;
#X obj 192 477 bng 19 250 50 0 empty empty empty 0 -10 0 12 #fcfcfc #000000 #000000;
#X obj 576 640 + 2000;
#X floatatom 576 664 5 0 0 0 - - - 0;
#X obj 575 701 delay;
#X obj 575 725 bng 19 250 50 0 empty empty empty 0 -10 0 12 #fcfcfc #000000 #000000;
#X msg 366 666 stop;
#X obj 194 511 t b b;
#X obj 590 40 bng 19 250 50 0 \$0-stop_all empty stop\ all 0 -10 0 12 #fcfcfc #000000 #000000;
#X obj 611 539 r \$0-lengthms;
#X obj 231 239 t b b s b s, f 40;
#X obj 700 770 -;
#X obj 718 739 t b f;
#X floatatom 700 794 8 0 0 0 - - - 0;
#X obj 703 856 random;
#X obj 718 823 t b f;
#X floatatom 703 880 5 0 0 0 - - - 0;
#X obj 703 903 s \$0-random_offset;
#X obj 283 321 r \$0-random_offset;
#X msg 69 314 start;
#X msg 147 406 open \$1 \$2;
#X obj 193 365 pack s f;
#X obj 611 563 t b f;
#X obj 516 115 nbx 5 17 -1e+37 1e+37 0 0 empty \$0-random_offset offset 0 -10 0 12 #fcfcfc #000000 #000000 0 256;
#X obj 590 115 nbx 6 17 -1e+37 1e+37 0 0 empty \$0-lengthms sound\ length 0 -10 0 12 #fcfcfc #000000 #000000 0 256;
#X obj 680 118 nbx 5 17 -1e+37 1e+37 0 0 empty \$0-playlength max\ length 0 -10 0 12 #fcfcfc #000000 #000000 0 256;
#X obj 283 345 * 44.1;
#X obj 188 549 s \$0-new_sound;
#X obj 297 551 s \$0-stop_delay;
#X obj 359 641 r \$0-stop_delay;
#X obj 478 643 r \$0-stop_all;
#X obj 153 281 r \$0-stop_all;
#X obj 509 68 r \$0-new_sound;
#X obj 43 216 s \$0-selected_sound;
#X obj 229 212 r \$0-selected_sound;
#X obj 484 38 bng 19 250 50 0 empty empty start\ playback 0 -10 0 12 #fcfcfc #000000 #000000;
#X obj 280 942 outlet~;
#X obj 345 947 outlet~;
#X obj 413 21 inlet;
#X obj 54 8 loadbang;
#X obj 478 164 outlet;
#X obj 648 44 r stop_all;
#X obj 54 36 i \$2;
#X obj 257 757 >= \$1;
#X msg 257 781 \$1 100;
#X obj 260 815 line~;
#X obj 252 727 r intensity;
#X obj 769 30 r intensity;
#X obj 769 54 >= \$1;
#X obj 769 139 sel 1 0;
#X obj 769 78 change;
#X obj 379 795 ys.panning;
#X obj 341 861 *~;
#X obj 409 857 *~;
#X obj 383 769 hsl 128 15 0 1 0 0 empty empty empty -2 -8 0 10 #fcfcfc #000000 #000000 0 1;
#X obj 389 713 random 100;
#X obj 389 737 / 100;
#X obj 475 958 dac~;
#X obj 131 864 *~ 1;
#X obj 195 868 *~ 1;
#X obj 500 869 line~;
#X obj 439 935 *~;
#X obj 445 902 *~;
#X obj 607 797 delay;
#X obj 607 821 bng 19 250 50 0 empty empty empty 0 -10 0 12 #fcfcfc #000000 #000000;
#X msg 500 845 1 2000;
#X msg 559 848 0 2000;
#X obj 607 773 - 2000;
#X connect 0 0 56 0;
#X connect 1 0 18 0;
#X connect 3 0 5 0;
#X connect 3 1 6 0;
#X connect 4 0 3 0;
#X connect 5 0 11 0;
#X connect 6 0 7 0;
#X connect 6 1 8 0;
#X connect 6 2 9 0;
#X connect 6 3 10 0;
#X connect 7 0 11 1;
#X connect 9 0 2 0;
#X connect 11 0 12 0;
#X connect 12 0 20 0;
#X connect 13 0 82 0;
#X connect 14 0 15 0;
#X connect 15 0 16 0;
#X connect 15 2 17 0;
#X connect 16 0 13 1;
#X connect 17 0 13 1;
#X connect 18 0 13 0;
#X connect 18 0 81 0;
#X connect 18 1 82 0;
#X connect 18 2 24 0;
#X connect 20 0 21 0;
#X connect 23 0 25 0;
#X connect 24 0 30 0;
#X connect 25 0 26 0;
#X connect 26 0 27 0;
#X connect 26 0 35 0;
#X connect 26 0 22 0;
#X connect 26 0 90 0;
#X connect 27 0 28 0;
#X connect 28 0 58 0;
#X connect 29 0 27 0;
#X connect 30 0 50 0;
#X connect 30 1 51 0;
#X connect 32 0 45 0;
#X connect 33 0 42 0;
#X connect 33 2 44 0;
#X connect 33 3 1 0;
#X connect 33 3 78 0;
#X connect 33 3 88 0;
#X connect 33 4 4 0;
#X connect 34 0 36 0;
#X connect 35 0 34 0;
#X connect 35 1 34 1;
#X connect 36 0 38 0;
#X connect 37 0 39 0;
#X connect 38 0 37 0;
#X connect 38 1 37 1;
#X connect 39 0 40 0;
#X connect 41 0 49 0;
#X connect 42 0 18 0;
#X connect 43 0 18 0;
#X connect 44 0 43 0;
#X connect 45 0 23 0;
#X connect 45 1 34 0;
#X connect 49 0 44 1;
#X connect 52 0 29 0;
#X connect 53 0 29 0;
#X connect 54 0 1 0;
#X connect 55 0 0 2;
#X connect 55 0 63 0;
#X connect 57 0 33 0;
#X connect 58 0 0 2;
#X connect 58 0 63 0;
#X connect 61 0 58 0;
#X connect 62 0 65 0;
#X connect 64 0 31 0;
#X connect 65 0 0 0;
#X connect 66 0 67 0;
#X connect 67 0 68 0;
#X connect 69 0 66 0;
#X connect 70 0 71 0;
#X connect 71 0 73 0;
#X connect 72 0 58 0;
#X connect 72 1 31 0;
#X connect 73 0 72 0;
#X connect 74 0 75 1;
#X connect 74 1 76 1;
#X connect 75 0 59 0;
#X connect 75 0 84 0;
#X connect 76 0 60 0;
#X connect 76 0 85 0;
#X connect 77 0 74 0;
#X connect 78 0 79 0;
#X connect 79 0 77 0;
#X connect 81 0 75 0;
#X connect 82 0 76 0;
#X connect 83 0 85 1;
#X connect 83 0 84 1;
#X connect 84 0 80 0;
#X connect 85 0 80 1;
#X connect 86 0 89 0;
#X connect 86 0 87 0;
#X connect 88 0 83 0;
#X connect 89 0 83 0;
#X connect 90 0 86 0;
