#N canvas 143 27 949 777 12;
#X msg 129 447 stop;
#X obj 765 559 s \$0-channels;
#X obj 553 442 soundfiler;
#X floatatom 559 486 12 0 0 0 - - - 0;
#X obj 653 486 unpack 0 0 0 0 s, f 39;
#X floatatom 634 517 11 0 0 0 - - - 0;
#X floatatom 720 518 5 0 0 0 - - - 0;
#X floatatom 781 518 5 0 0 0 - - - 0;
#X floatatom 848 526 5 0 0 0 - - - 0;
#X obj 568 539 /;
#X floatatom 568 563 10 0 0 0 - - - 0;
#X obj 152 852 *~;
#X obj 201 744 r \$0-channels;
#X obj 201 768 sel 1 2;
#X msg 197 811 1;
#X msg 232 811 0;
#X obj 128 575 readsf~ 2;
#X obj 575 598 * 1000;
#X obj 575 622 s \$0-lengthms;
#X obj 655 825 s \$0-playlength;
#X obj 576 748 random 8000;
#X obj 192 609 bng 19 250 50 0 empty empty empty 0 -10 0 12 #fcfcfc #000000 #000000;
#X obj 576 772 + 2000;
#X floatatom 576 796 5 0 0 0 - - - 0;
#X obj 575 833 delay;
#X obj 575 857 bng 19 250 50 0 empty empty empty 0 -10 0 12 #fcfcfc #000000 #000000;
#X msg 366 798 stop;
#X obj 194 643 t b b;
#X obj 584 62 bng 19 250 50 0 \$0-stop_all empty stop\ all 0 -10 0 12 #fcfcfc #000000 #000000;
#X obj 611 671 r \$0-lengthms;
#X obj 630 899 -;
#X obj 648 868 t b f;
#X floatatom 630 923 8 0 0 0 - - - 0;
#X obj 633 985 random;
#X obj 648 952 t b f;
#X floatatom 633 1009 5 0 0 0 - - - 0;
#X obj 633 1032 s \$0-random_offset;
#X obj 283 453 r \$0-random_offset;
#X msg 69 446 start;
#X obj 611 695 t b f;
#X obj 510 137 nbx 5 17 -1e+37 1e+37 0 0 empty \$0-random_offset offset 0 -10 0 12 #fcfcfc #000000 #000000 0 256;
#X obj 584 137 nbx 6 17 -1e+37 1e+37 0 0 empty \$0-lengthms sound\ length 0 -10 0 12 #fcfcfc #000000 #000000 0 256;
#X obj 674 140 nbx 5 17 -1e+37 1e+37 0 0 empty \$0-playlength max\ length 0 -10 0 12 #fcfcfc #000000 #000000 0 256;
#X obj 283 477 * 44.1;
#X obj 188 681 s \$0-new_sound;
#X obj 297 683 s \$0-stop_delay;
#X obj 359 773 r \$0-stop_delay;
#X obj 478 775 r \$0-stop_all;
#X obj 153 413 r \$0-stop_all;
#X obj 531 953 s \$0-new_sound;
#X obj 503 90 r \$0-new_sound;
#X obj 28 385 s \$0-selected_sound;
#X obj 478 60 bng 19 250 50 0 empty \$3-startall start\ playback 0 -10 0 12 #fcfcfc #000000 #000000;
#X obj 280 1074 outlet~;
#X obj 345 1079 outlet~;
#X obj 407 43 inlet;
#X obj 490 185 outlet;
#X obj 655 23 r stop_all;
#X obj 257 889 >= \$1;
#X msg 257 913 \$1 100;
#X obj 260 947 line~;
#X obj 131 996 *~;
#X obj 195 1000 *~;
#X obj 763 43 >= \$1;
#X obj 763 161 sel 1 0;
#X obj 763 100 change;
#X obj 379 927 ys.panning;
#X obj 341 993 *~;
#X obj 409 989 *~;
#X obj 383 901 hsl 128 15 0 1 0 0 empty empty empty -2 -8 0 10 #fcfcfc #000000 #000000 0 1;
#X obj 389 845 random 100;
#X obj 389 869 / 100;
#X obj 252 859 r \$3-intensity;
#X obj 763 19 r \$3-intensity;
#X floatatom 654 236 5 0 0 0 - - - 0;
#X floatatom 655 292 5 0 0 0 - - - 0;
#X obj 677 376 s \$3-selected_sound;
#X obj 827 17 inlet;
#X floatatom 829 211 5 0 0 0 - - - 0;
#X obj 655 268 tabread \$3-sample_selector;
#X obj 416 435 s \$3-counterbang;
#X obj 888 86 spigot;
#X obj 883 160 i;
#X obj 880 133 bng 19 250 50 0 empty empty empty 0 -10 0 12 #fcfcfc #000000 #000000;
#X floatatom 883 184 5 0 0 0 - - - 0;
#X obj 905 123 r \$3-nextsound;
#X floatatom 831 133 5 0 0 0 - - - 0;
#X obj 766 199 bng 19 250 50 0 empty empty empty 0 -10 0 12 #fcfcfc #000000 #000000;
#X obj 849 60 tgl 19 0 empty empty empty 0 -10 0 12 #fcfcfc #000000 #000000 0 1;
#X obj 762 70 t f f;
#X obj 607 345 print sound;
#X msg 549 409 read sounds_bela/\$1_.wav;
#X msg 147 538 open sounds_bela/\$1_.wav \$2;
#X obj 231 372 t b b f b f b, f 40;
#X obj 273 573 print;
#X obj 194 497 pack f f;
#X connect 0 0 16 0;
#X connect 2 0 3 0;
#X connect 2 1 4 0;
#X connect 3 0 9 0;
#X connect 4 0 5 0;
#X connect 4 1 6 0;
#X connect 4 2 7 0;
#X connect 4 3 8 0;
#X connect 5 0 9 1;
#X connect 7 0 1 0;
#X connect 9 0 10 0;
#X connect 10 0 17 0;
#X connect 11 0 62 0;
#X connect 12 0 13 0;
#X connect 13 0 14 0;
#X connect 13 2 15 0;
#X connect 14 0 11 1;
#X connect 15 0 11 1;
#X connect 16 0 11 0;
#X connect 16 0 61 0;
#X connect 16 1 62 0;
#X connect 16 2 21 0;
#X connect 17 0 18 0;
#X connect 20 0 22 0;
#X connect 21 0 27 0;
#X connect 22 0 23 0;
#X connect 23 0 24 0;
#X connect 23 0 31 0;
#X connect 23 0 19 0;
#X connect 24 0 25 0;
#X connect 25 0 49 0;
#X connect 26 0 24 0;
#X connect 27 0 44 0;
#X connect 27 1 45 0;
#X connect 29 0 39 0;
#X connect 30 0 32 0;
#X connect 31 0 30 0;
#X connect 31 1 30 1;
#X connect 32 0 34 0;
#X connect 33 0 35 0;
#X connect 34 0 33 0;
#X connect 34 1 33 1;
#X connect 35 0 36 0;
#X connect 37 0 43 0;
#X connect 38 0 16 0;
#X connect 39 0 20 0;
#X connect 39 1 30 0;
#X connect 43 0 95 1;
#X connect 46 0 26 0;
#X connect 47 0 26 0;
#X connect 48 0 0 0;
#X connect 50 0 56 0;
#X connect 50 0 81 0;
#X connect 52 0 56 0;
#X connect 52 0 81 0;
#X connect 55 0 52 0;
#X connect 57 0 28 0;
#X connect 58 0 59 0;
#X connect 59 0 60 0;
#X connect 60 0 62 1;
#X connect 60 0 61 1;
#X connect 61 0 67 0;
#X connect 62 0 68 0;
#X connect 63 0 88 0;
#X connect 63 0 89 0;
#X connect 64 0 52 0;
#X connect 64 0 87 0;
#X connect 64 1 28 0;
#X connect 65 0 64 0;
#X connect 66 0 67 1;
#X connect 66 1 68 1;
#X connect 67 0 53 0;
#X connect 68 0 54 0;
#X connect 69 0 66 0;
#X connect 70 0 71 0;
#X connect 71 0 69 0;
#X connect 72 0 58 0;
#X connect 73 0 63 0;
#X connect 74 0 79 0;
#X connect 75 0 93 0;
#X connect 77 0 78 0;
#X connect 79 0 75 0;
#X connect 81 0 83 0;
#X connect 82 0 84 0;
#X connect 83 0 82 0;
#X connect 84 0 74 0;
#X connect 85 0 82 1;
#X connect 89 0 65 0;
#X connect 89 1 81 1;
#X connect 91 0 2 0;
#X connect 92 0 16 0;
#X connect 93 0 38 0;
#X connect 93 2 95 0;
#X connect 93 3 0 0;
#X connect 93 3 70 0;
#X connect 93 4 91 0;
#X connect 93 5 80 0;
#X connect 95 0 92 0;
