#N canvas 369 25 967 784 12;
#X obj 240 212 sampleSelector \$0;
#X obj 538 21 loadbang;
#X msg 538 45 1;
#X floatatom 804 227 5 0 0 0 - - - 0;
#X floatatom 892 228 5 0 0 0 - - - 0;
#X obj 817 327 s \$0-numsounds;
#X obj 862 228 bng 19 250 50 0 empty empty empty 0 -10 0 12 #fcfcfc #000000 #000000;
#X obj 533 79 ys.soundLoader;
#X msg 169 48 1;
#X obj 171 93 + 1;
#X floatatom 171 117 5 0 0 0 - - - 0;
#X obj 178 146 %;
#X obj 237 118 r \$0-numsounds;
#N canvas 0 22 450 278 (subpatch) 0;
#X array \$0-sound1 952320 float 2;
#X coords 0 1 952320 -1 200 140 1 0 0;
#X restore 525 275 graph;
#X obj 173 431 soundfiler;
#X obj 201 280 text get \$0-dirfiles;
#X floatatom 202 184 5 0 0 0 - - - 0;
#X msg 353 244 symbol \$1-dirfiles;
#X floatatom 163 459 7 0 0 0 - - - 0;
#X floatatom 243 456 5 0 0 0 - - - 0;
#X obj 219 594 /;
#X obj 248 485 t b f;
#X floatatom 219 618 8 0 0 0 - - - 0;
#X obj 219 641 * 1000;
#X obj 236 687 s \$0-soundms;
#X obj 260 331 i \$0;
#X obj 207 311 t s b;
#X msg 231 400 read -resize \$1 \$2-sound1;
#X obj 252 367 pack s 0;
#X obj 400 592 line~;
#X obj 400 693 *~;
#X obj 398 759 tabread4~ \$0-sound1;
#X obj 398 783 dac~;
#X msg 393 546 0;
#X obj 715 475 random;
#X obj 762 399 r \$0-soundms;
#X obj 207 666 t b f;
#X obj 195 719 s \$0-makerandom;
#X obj 633 418 r \$0-makerandom;
#X floatatom 715 499 5 0 0 0 - - - 0;
#X obj 733 617 -;
#X obj 715 522 t b f;
#X floatatom 733 641 10 0 0 0 - - - 0;
#X floatatom 733 688 5 0 0 0 - - - 0;
#X obj 733 664 clip 0 6000;
#X obj 729 741 random;
#X obj 628 522 s \$0-offset;
#X obj 735 715 t b f;
#X floatatom 729 765 5 0 0 0 - - - 0;
#X obj 729 788 s \$0-length;
#X obj 464 482 / 1000;
#X obj 439 383 r \$0-length;
#X obj 464 520 pack 0 0;
#X msg 444 555 \$1 \$2;
#X obj 452 689 r \$0-offset;
#X obj 434 728 +~;
#X obj 713 448 t b f;
#X obj 770 568 f;
#X obj 190 532 i;
#X obj 165 10 r \$0-retrigger;
#X obj 535 524 delay;
#X obj 462 443 t f f b f;
#X obj 535 548 bng 19 250 50 0 empty empty empty 0 -10 0 12 #fcfcfc #000000 #000000;
#X obj 543 589 s \$0-retrigger;
#X msg 558 491 stop;
#X obj 276 33 bng 19 250 50 0 empty empty empty 0 -10 0 12 #fcfcfc #000000 #000000;
#X floatatom 440 411 5 0 0 0 - - - 0;
#X obj 91 14 loadbang;
#X obj 276 57 s stopall;
#X obj 349 496 r stopall;
#X obj 560 465 r stopall;
#X obj 45 27 r startall;
#X floatatom 240 236 5 0 0 0 - - - 0;
#X text 611 18 an attempt at a soundfiler/verison;
#X text 617 44 this glitches too much and doesn't work;
#X connect 0 0 72 0;
#X connect 1 0 2 0;
#X connect 2 0 7 0;
#X connect 3 0 17 0;
#X connect 4 0 0 1;
#X connect 4 0 5 0;
#X connect 6 0 4 0;
#X connect 6 0 3 0;
#X connect 7 3 3 0;
#X connect 7 4 4 0;
#X connect 8 0 9 0;
#X connect 9 0 10 0;
#X connect 10 0 9 1;
#X connect 10 0 11 0;
#X connect 11 0 16 0;
#X connect 12 0 11 1;
#X connect 14 0 18 0;
#X connect 14 1 19 0;
#X connect 15 0 26 0;
#X connect 16 0 0 0;
#X connect 17 0 15 3;
#X connect 18 0 58 1;
#X connect 19 0 21 0;
#X connect 20 0 22 0;
#X connect 21 0 58 0;
#X connect 21 1 20 1;
#X connect 21 1 30 1;
#X connect 22 0 23 0;
#X connect 23 0 36 0;
#X connect 25 0 28 1;
#X connect 26 0 28 0;
#X connect 26 1 25 0;
#X connect 27 0 14 0;
#X connect 28 0 27 0;
#X connect 29 0 30 0;
#X connect 30 0 55 0;
#X connect 31 0 32 0;
#X connect 31 0 32 1;
#X connect 33 0 29 0;
#X connect 34 0 39 0;
#X connect 35 0 56 0;
#X connect 35 0 57 1;
#X connect 36 1 24 0;
#X connect 39 0 41 0;
#X connect 39 0 46 0;
#X connect 40 0 42 0;
#X connect 41 0 57 0;
#X connect 41 1 40 1;
#X connect 42 0 44 0;
#X connect 43 0 47 0;
#X connect 44 0 43 0;
#X connect 45 0 48 0;
#X connect 47 0 45 0;
#X connect 47 1 45 1;
#X connect 48 0 49 0;
#X connect 50 0 52 0;
#X connect 51 0 66 0;
#X connect 52 0 53 0;
#X connect 53 0 29 0;
#X connect 54 0 55 1;
#X connect 55 0 31 0;
#X connect 56 0 34 0;
#X connect 56 1 34 1;
#X connect 57 0 40 0;
#X connect 58 0 20 0;
#X connect 59 0 8 0;
#X connect 60 0 62 0;
#X connect 61 0 50 0;
#X connect 61 1 52 1;
#X connect 61 2 33 0;
#X connect 61 3 60 0;
#X connect 62 0 63 0;
#X connect 64 0 60 0;
#X connect 65 0 68 0;
#X connect 66 0 61 0;
#X connect 67 0 8 0;
#X connect 69 0 33 0;
#X connect 70 0 64 0;
#X connect 71 0 8 0;
#X connect 72 0 15 0;
