#N canvas 15 95 949 777 12;
#X msg 129 447 stop;
#X obj 765 559 s \$0-channels;
#X obj 553 442 soundfiler;
#X floatatom 559 486 12 0 0 0 - - - 0;
#X obj 653 486 unpack 0 0 0 0 s, f 39;
#X floatatom 634 517 11 0 0 0 - - - 0;
#X floatatom 720 518 5 0 0 0 - - - 0;
#X floatatom 781 518 5 0 0 0 - - - 0;
#X floatatom 848 526 5 0 0 0 - - - 0;
#X obj 568 539 /;
#X floatatom 568 563 10 0 0 0 - - - 0;
#X obj 152 852 *~;
#X obj 201 744 r \$0-channels;
#X obj 201 768 sel 1 2;
#X msg 197 811 1;
#X msg 232 811 0;
#X obj 128 575 readsf~ 2;
#N canvas 179 204 450 300 alternative_info_method 0;
#X obj 499 432 file handle;
#X obj 472 385 t b a;
#X obj 499 460 list split 4;
#X obj 364 990 print RIFF;
#X obj 533 490 list split 4;
#X obj 398 955 print SIZE 8-bytes in bytes (32-bit integer);
#X obj 567 520 list split 4;
#X obj 432 918 print TYPE HEADER;
#X obj 601 550 list split 4;
#X obj 466 881 print Format chunk marker. Includes trailing null;
#X obj 635 580 list split 4;
#X obj 500 847 print Format chunk marker. Includes trailing null;
#X obj 669 610 list split 2;
#X obj 534 814 print Type of format (1 is PCM) - 2 byte integer;
#X obj 703 640 list split 2;
#X obj 703 740 print Number of Channels - 2 byte integer;
#X obj 737 670 list split 4;
#X obj 737 710 print Sample Rate - 32 byte integer;
#X msg 472 414 28;
#X msg 565 390 close;
#X msg 478 325 open \$1;
#X obj 480 354 t a b;
#X text 428 848 bit rate;
#X text 606 148 68 172 0 0 -- 44.1;
#X text 610 187 34 86 0 0 -- 22k;
#X text 621 229 40 seems to be 24 bit?;
#X text 625 253 16 seems to be 16 bit;
#X text 598 119 0 119 1 0 -- 96;
#X text 593 97 0 0 0 0 -- 192?!;
#X text 641 301 192 files seem to cause issues;
#X connect 0 0 2 0;
#X connect 1 0 18 0;
#X connect 1 1 0 0;
#X connect 2 0 3 0;
#X connect 2 1 4 0;
#X connect 4 0 5 0;
#X connect 4 1 6 0;
#X connect 6 0 7 0;
#X connect 6 1 8 0;
#X connect 8 0 9 0;
#X connect 8 1 10 0;
#X connect 10 0 11 0;
#X connect 10 1 12 0;
#X connect 12 0 13 0;
#X connect 12 1 14 0;
#X connect 14 0 15 0;
#X connect 14 1 16 0;
#X connect 16 0 17 0;
#X connect 18 0 0 0;
#X connect 19 0 0 0;
#X connect 20 0 21 0;
#X connect 21 0 1 0;
#X connect 21 1 19 0;
#X restore 703 583 pd alternative_info_method;
#X obj 575 598 * 1000;
#X obj 575 622 s \$0-lengthms;
#X obj 655 825 s \$0-playlength;
#X obj 576 748 random 8000;
#X obj 192 609 bng 19 250 50 0 empty empty empty 0 -10 0 12 #fcfcfc #000000 #000000;
#X obj 576 772 + 2000;
#X floatatom 576 796 5 0 0 0 - - - 0;
#X obj 575 833 delay;
#X obj 575 857 bng 19 250 50 0 empty empty empty 0 -10 0 12 #fcfcfc #000000 #000000;
#X msg 366 798 stop;
#X obj 194 643 t b b;
#X obj 584 62 bng 19 250 50 0 \$0-stop_all empty stop\ all 0 -10 0 12 #fcfcfc #000000 #000000;
#X obj 611 671 r \$0-lengthms;
#X obj 630 899 -;
#X obj 648 868 t b f;
#X floatatom 630 923 8 0 0 0 - - - 0;
#X obj 633 985 random;
#X obj 648 952 t b f;
#X floatatom 633 1009 5 0 0 0 - - - 0;
#X obj 633 1032 s \$0-random_offset;
#X obj 283 453 r \$0-random_offset;
#X msg 69 446 start;
#X obj 193 497 pack s f;
#X obj 611 695 t b f;
#X obj 510 137 nbx 5 17 -1e+37 1e+37 0 0 empty \$0-random_offset offset 0 -10 0 12 #fcfcfc #000000 #000000 0 256;
#X obj 584 137 nbx 6 17 -1e+37 1e+37 0 0 empty \$0-lengthms sound\ length 0 -10 0 12 #fcfcfc #000000 #000000 0 256;
#X obj 674 140 nbx 5 17 -1e+37 1e+37 0 0 empty \$0-playlength max\ length 0 -10 0 12 #fcfcfc #000000 #000000 0 256;
#X obj 283 477 * 44.1;
#X obj 188 681 s \$0-new_sound;
#X obj 297 683 s \$0-stop_delay;
#X obj 359 773 r \$0-stop_delay;
#X obj 478 775 r \$0-stop_all;
#X obj 153 413 r \$0-stop_all;
#X obj 531 953 s \$0-new_sound;
#X obj 503 90 r \$0-new_sound;
#X obj 28 385 s \$0-selected_sound;
#X obj 478 60 bng 19 250 50 0 empty \$3-startall start\ playback 0 -10 0 12 #fcfcfc #000000 #000000;
#X obj 280 1074 outlet~;
#X obj 345 1079 outlet~;
#X obj 407 43 inlet;
#X obj 490 185 outlet;
#X obj 655 23 r stop_all;
#X obj 257 889 >= \$1;
#X msg 257 913 \$1 100;
#X obj 260 947 line~;
#X obj 131 996 *~;
#X obj 195 1000 *~;
#X obj 763 43 >= \$1;
#X obj 763 161 sel 1 0;
#X obj 763 100 change;
#X obj 379 927 ys.panning;
#X obj 341 993 *~;
#X obj 409 989 *~;
#X obj 383 901 hsl 128 15 0 1 0 0 empty empty empty -2 -8 0 10 #fcfcfc #000000 #000000 0 1;
#X obj 389 845 random 100;
#X obj 389 869 / 100;
#X obj 252 859 r \$3-intensity;
#X obj 763 19 r \$3-intensity;
#X msg 147 538 open sounds/\$1 \$2;
#X msg 549 409 read sounds/\$1;
#X floatatom 654 236 5 0 0 0 - - - 0;
#X floatatom 655 292 5 0 0 0 - - - 0;
#X obj 746 325 text get \$3-dirfiles;
#X obj 677 376 s \$3-selected_sound;
#X obj 827 17 inlet;
#X floatatom 829 211 5 0 0 0 - - - 0;
#X obj 655 268 tabread \$3-sample_selector;
#X msg 857 278 symbol \$1-dirfiles;
#X obj 840 376 file splitname;
#X obj 840 400 unpack s s;
#X obj 231 371 t b b s b s b, f 40;
#X obj 416 435 s \$3-counterbang;
#X obj 888 86 spigot;
#X obj 883 160 i;
#X obj 880 133 bng 19 250 50 0 empty empty empty 0 -10 0 12 #fcfcfc #000000 #000000;
#X floatatom 883 184 5 0 0 0 - - - 0;
#X obj 905 123 r \$3-nextsound;
#X floatatom 831 133 5 0 0 0 - - - 0;
#X obj 766 199 bng 19 250 50 0 empty empty empty 0 -10 0 12 #fcfcfc #000000 #000000;
#X obj 849 60 tgl 19 0 empty empty empty 0 -10 0 12 #fcfcfc #000000 #000000 0 1;
#X obj 762 70 t f f;
#X connect 0 0 16 0;
#X connect 2 0 3 0;
#X connect 2 1 4 0;
#X connect 3 0 9 0;
#X connect 4 0 5 0;
#X connect 4 1 6 0;
#X connect 4 2 7 0;
#X connect 4 3 8 0;
#X connect 5 0 9 1;
#X connect 7 0 1 0;
#X connect 9 0 10 0;
#X connect 10 0 18 0;
#X connect 11 0 64 0;
#X connect 12 0 13 0;
#X connect 13 0 14 0;
#X connect 13 2 15 0;
#X connect 14 0 11 1;
#X connect 15 0 11 1;
#X connect 16 0 11 0;
#X connect 16 0 63 0;
#X connect 16 1 64 0;
#X connect 16 2 22 0;
#X connect 18 0 19 0;
#X connect 21 0 23 0;
#X connect 22 0 28 0;
#X connect 23 0 24 0;
#X connect 24 0 25 0;
#X connect 24 0 32 0;
#X connect 24 0 20 0;
#X connect 25 0 26 0;
#X connect 26 0 51 0;
#X connect 27 0 25 0;
#X connect 28 0 46 0;
#X connect 28 1 47 0;
#X connect 30 0 41 0;
#X connect 31 0 33 0;
#X connect 32 0 31 0;
#X connect 32 1 31 1;
#X connect 33 0 35 0;
#X connect 34 0 36 0;
#X connect 35 0 34 0;
#X connect 35 1 34 1;
#X connect 36 0 37 0;
#X connect 38 0 45 0;
#X connect 39 0 16 0;
#X connect 40 0 76 0;
#X connect 41 0 21 0;
#X connect 41 1 31 0;
#X connect 45 0 40 1;
#X connect 48 0 27 0;
#X connect 49 0 27 0;
#X connect 50 0 0 0;
#X connect 52 0 58 0;
#X connect 52 0 90 0;
#X connect 54 0 58 0;
#X connect 54 0 90 0;
#X connect 57 0 54 0;
#X connect 59 0 29 0;
#X connect 60 0 61 0;
#X connect 61 0 62 0;
#X connect 62 0 64 1;
#X connect 62 0 63 1;
#X connect 63 0 69 0;
#X connect 64 0 70 0;
#X connect 65 0 97 0;
#X connect 65 0 98 0;
#X connect 66 0 54 0;
#X connect 66 0 96 0;
#X connect 66 1 29 0;
#X connect 67 0 66 0;
#X connect 68 0 69 1;
#X connect 68 1 70 1;
#X connect 69 0 55 0;
#X connect 70 0 56 0;
#X connect 71 0 68 0;
#X connect 72 0 73 0;
#X connect 73 0 71 0;
#X connect 74 0 60 0;
#X connect 75 0 65 0;
#X connect 76 0 16 0;
#X connect 77 0 2 0;
#X connect 78 0 84 0;
#X connect 79 0 80 0;
#X connect 80 0 81 0;
#X connect 80 0 86 0;
#X connect 82 0 83 0;
#X connect 83 0 85 0;
#X connect 84 0 79 0;
#X connect 85 0 80 3;
#X connect 86 0 87 0;
#X connect 87 1 88 0;
#X connect 88 0 39 0;
#X connect 88 2 40 0;
#X connect 88 3 0 0;
#X connect 88 3 72 0;
#X connect 88 4 77 0;
#X connect 88 5 89 0;
#X connect 90 0 92 0;
#X connect 91 0 93 0;
#X connect 92 0 91 0;
#X connect 93 0 78 0;
#X connect 94 0 91 1;
#X connect 98 0 67 0;
#X connect 98 1 90 1;
