#N canvas 560 215 803 565 10;
#X obj 94 341 dac~;
#X obj 94 233 osc~ 440;
#X obj 94 310 *~ 0.2;
#X text 171 283 click for test beep;
#X floatatom 86 174 5 0 0 0 - - -;
#X obj 138 177 * 600;
#X obj 86 143 r slider1;
#X obj 383 408 random 100;
#X obj 345 321 tgl 15 0 empty empty empty 17 7 0 10 -262144 -1 -1 0
1;
#X obj 371 377 metro 200;
#X obj 371 450 print random;
#X obj 371 254 loadbang;
#X msg 371 285 1;
#X msg 475 143 \; pd dsp 1;
#X obj 471 89 loadbang;
#X connect 1 0 2 0;
#X connect 2 0 0 0;
#X connect 2 0 0 1;
#X connect 4 0 5 0;
#X connect 5 0 1 0;
#X connect 6 0 4 0;
#X connect 7 0 10 0;
#X connect 8 0 9 0;
#X connect 9 0 7 0;
#X connect 11 0 12 0;
#X connect 12 0 8 0;
#X connect 14 0 13 0;
